<svg width="87" height="32" viewBox="0 0 87 32" fill="none" xmlns="http://www.w3.org/2000/svg">
    <g clip-path="url(#clip0_2805_18961)">
        <rect width="87" height="32" rx="8" fill="black" />
        <path
            d="M62.3133 40H24.6867C21.8222 40 19.5 37.6778 19.5 34.8133V-2.81335C19.5 -5.67781 21.8222 -8 24.6867 -8H62.3133C65.1779 -8 67.5 -5.67781 67.5 -2.81335V34.8133C67.5 37.6778 65.1778 40 62.3133 40Z"
            fill="black" />
        <path
            d="M32.2528 10.3074C32.6786 9.77491 32.9675 9.05987 32.8913 8.3291C32.2681 8.3601 31.5075 8.74028 31.0671 9.27328C30.6718 9.72968 30.3218 10.4747 30.413 11.1747C31.1126 11.2355 31.8117 10.8251 32.2528 10.3074ZM32.8834 11.3115C31.8673 11.251 31.0035 11.8881 30.5182 11.8881C30.0327 11.8881 29.2896 11.3419 28.486 11.3567C27.44 11.372 26.4695 11.9635 25.9386 12.9041C24.8469 14.7858 25.6505 17.5771 26.7122 19.1096C27.2278 19.8679 27.8492 20.7028 28.6679 20.6727C29.4414 20.6424 29.7446 20.1718 30.685 20.1718C31.6246 20.1718 31.8977 20.6727 32.7166 20.6575C33.5658 20.6424 34.0967 19.8989 34.6123 19.14C35.2037 18.2757 35.4458 17.4411 35.4611 17.3953C35.4458 17.3801 33.8236 16.7578 33.8085 14.8917C33.7932 13.3292 35.0822 12.586 35.1428 12.5399C34.415 11.4633 33.2776 11.342 32.8834 11.3115ZM41.7304 9.19687C43.9388 9.19687 45.4766 10.7191 45.4766 12.9355C45.4766 15.1597 43.9072 16.6899 41.675 16.6899H39.2299V20.5783H37.4632V9.19687H41.7304ZM39.23 15.207H41.257C42.7951 15.207 43.6705 14.3789 43.6705 12.9433C43.6705 11.5079 42.7951 10.6876 41.2649 10.6876H39.23V15.207ZM45.9383 18.2201C45.9383 16.7687 47.0503 15.8775 49.0223 15.7671L51.2937 15.6331V14.9942C51.2937 14.0714 50.6706 13.5193 49.6297 13.5193C48.6435 13.5193 48.0283 13.9925 47.8786 14.7339H46.2696C46.3642 13.2352 47.6419 12.131 49.6926 12.131C51.7038 12.131 52.9894 13.1958 52.9894 14.86V20.5783H51.3567V19.2138H51.3174C50.8364 20.1366 49.7873 20.7203 48.6989 20.7203C47.0741 20.7203 45.9383 19.7107 45.9383 18.2201ZM51.2937 17.4708V16.8162L49.2509 16.9423C48.2334 17.0134 47.6577 17.463 47.6577 18.1728C47.6577 18.8983 48.2571 19.3716 49.172 19.3716C50.363 19.3717 51.2937 18.5513 51.2937 17.4708ZM54.5309 23.6308V22.2504C54.6568 22.2819 54.9408 22.2819 55.0828 22.2819C55.8715 22.2819 56.2974 21.9507 56.5576 21.0988C56.5576 21.083 56.7077 20.594 56.7077 20.5862L53.7106 12.2807H55.556L57.6543 19.0324H57.6856L59.7839 12.2807H61.5822L58.4744 21.0119C57.7648 23.0233 56.9445 23.67 55.2251 23.67C55.0828 23.6702 54.6568 23.6544 54.5309 23.6308Z"
            fill="white" />
    </g>
    <defs>
        <clipPath id="clip0_2805_18961">
            <rect width="87" height="32" rx="8" fill="white" />
        </clipPath>
    </defs>
</svg>
    