<svg
    width="48"
    height="48"
    viewBox="0 0 48 48"
    fill="none"
    xmlns="http://www.w3.org/2000/svg"
>
    <path
        d="M20.6757 25.1426H2.10962V31.3276H20.6757V25.1426Z"
        fill="#84B740"
    />
    <path
        d="M20.6757 16.7031H2.10962V22.8936H20.6757V16.7031Z"
        fill="#259BD6"
    />
    <path
        d="M39.2417 30.0703L39.159 30.0869C38.8723 30.142 38.7676 30.164 38.5581 30.164C38.0729 30.164 37.4996 29.916 37.4996 28.7473C37.4996 28.1464 37.5988 27.3471 38.5029 27.3471H38.5084C38.6627 27.3581 38.8392 27.3747 39.1699 27.4739L39.2416 27.496L39.2417 30.0703ZM39.3905 24.2436L39.2417 24.2712V26.432L39.1094 26.3934L39.0708 26.3824C38.922 26.3383 38.5802 26.2391 38.2495 26.2391C36.4414 26.2391 36.061 27.6063 36.061 28.7528C36.061 30.3239 36.943 31.2279 38.481 31.2279C39.1315 31.2279 39.6111 31.1618 40.0962 31.0019C40.5427 30.8586 40.7026 30.6546 40.7026 30.2191V24.0176C40.2725 24.0947 39.826 24.1719 39.3905 24.2436Z"
        fill="#27292D"
    />
    <path
        d="M44.6165 30.1093L44.5394 30.1313L44.2638 30.203C44.0047 30.2692 43.7732 30.3078 43.5967 30.3078C43.1723 30.3078 42.9187 30.0983 42.9187 29.74C42.9187 29.5085 43.0234 29.1171 43.718 29.1171H44.6164V30.1093H44.6165ZM43.9826 26.2119C43.4258 26.2119 42.8525 26.3111 42.1414 26.5316L41.6783 26.6694L41.8327 27.7168L42.2848 27.5679C42.7589 27.4135 43.3487 27.3143 43.7897 27.3143C43.9882 27.3143 44.5946 27.3143 44.5946 27.9704V28.257H43.7512C42.2132 28.257 41.5021 28.7476 41.5021 29.8005C41.5021 30.699 42.1581 31.2392 43.2605 31.2392C43.6023 31.2392 44.0764 31.1731 44.4843 31.0738L44.5063 31.0683L44.5284 31.0738L44.6662 31.0959C45.0961 31.173 45.5426 31.2503 45.9781 31.3329V27.893C45.9781 26.7797 45.3056 26.2119 43.9826 26.2119Z"
        fill="#27292D"
    />
    <path
        d="M33.9057 30.1093L33.8285 30.1313L33.5529 30.203C33.2938 30.2692 33.0677 30.3078 32.8858 30.3078C32.4614 30.3078 32.2078 30.0983 32.2078 29.74C32.2078 29.5085 32.3125 29.1171 33.0016 29.1171H33.9001V30.1093H33.9057ZM33.2773 26.2119C32.715 26.2119 32.1472 26.3111 31.4361 26.5316L30.973 26.6694L31.1273 27.7168L31.5794 27.5679C32.0535 27.4135 32.6433 27.3143 33.0843 27.3143C33.2828 27.3143 33.8892 27.3143 33.8892 27.9704V28.257H33.0458C31.5078 28.257 30.7912 28.7476 30.7912 29.8005C30.7912 30.699 31.4472 31.2392 32.5552 31.2392C32.897 31.2392 33.3711 31.1731 33.779 31.0738L33.801 31.0683L33.8231 31.0738L33.9553 31.0959C34.3908 31.173 34.8318 31.2503 35.2672 31.3384V27.8986C35.2728 26.7742 34.6003 26.2119 33.2773 26.2119Z"
        fill="#27292D"
    />
    <path
        d="M28.1011 26.2233C27.401 26.2233 26.8222 26.4549 26.6073 26.5541L26.5522 26.5817L26.5025 26.543C26.2048 26.3281 25.7694 26.2178 25.163 26.2178C24.6283 26.2178 24.1267 26.2949 23.5809 26.4548C23.1123 26.5981 22.9304 26.8241 22.9304 27.2486V31.1791H24.3968V27.5463L24.4684 27.5242C24.7661 27.4251 24.9426 27.4085 25.1134 27.4085C25.5379 27.4085 25.7529 27.6345 25.7529 28.0755V31.1845H27.1972V28.0148C27.1972 27.8274 27.1585 27.7172 27.1531 27.6951L27.1034 27.6014L27.2026 27.5573C27.4232 27.4581 27.6657 27.4085 27.9192 27.4085C28.2113 27.4085 28.5586 27.5242 28.5586 28.0755V31.1845H29.9974V27.9322C29.9974 26.7801 29.38 26.2233 28.1011 26.2233Z"
        fill="#27292D"
    />
    <path
        d="M43.536 20.7382C43.321 20.7382 42.9627 20.7162 42.6816 20.6611L42.5989 20.6445V18.5221C42.5989 18.3457 42.5658 18.2355 42.5603 18.2189L42.5162 18.1307L42.6099 18.0921C42.6319 18.0811 42.654 18.0755 42.6816 18.0645L42.6982 18.0535C42.7312 18.0425 42.7643 18.0314 42.7974 18.0204C42.8139 18.0149 42.825 18.0094 42.836 18.0094C43.1613 17.9212 43.4589 17.9323 43.5912 17.9212H43.5968C44.4952 17.9212 44.6 18.7205 44.6 19.3214C44.5944 20.4902 44.0156 20.7382 43.536 20.7382ZM43.5305 16.7031C43.5195 16.7031 43.5029 16.7031 43.4919 16.7031C42.6485 16.7031 41.783 16.9347 41.4743 17.3866C41.3089 17.6072 41.2153 17.8828 41.2097 18.208V20.3965C41.2097 20.5839 41.1711 20.6555 41.1656 20.6721L41.116 20.7658H38.4535V19.2444H38.4479C38.4148 17.6402 37.4667 16.7582 36.0941 16.7582H35.9343H34.7546C34.6995 17.1496 34.6554 17.4253 34.6003 17.8167H35.9343C36.6344 17.8167 37.0037 18.412 37.0037 19.3271V20.8596L36.91 20.8099C36.8934 20.8044 36.7777 20.7658 36.5957 20.7658H34.2915C34.2474 21.0579 34.1923 21.4383 34.1316 21.8187H41.2152C41.4577 21.7691 41.7388 21.725 41.9814 21.6865C42.3397 21.8629 43.0067 21.9565 43.4642 21.9565C45.0022 21.9565 46 20.9257 46 19.3381C45.9945 17.767 45.0299 16.7362 43.5305 16.7031Z"
        fill="#27292D"
    />
    <path
        d="M31.1109 22.4636H31.177C32.715 22.4636 33.4316 21.9564 33.4316 20.7051C33.4316 19.8066 32.7756 19.09 31.6732 19.09H30.2565C29.832 19.09 29.5784 18.8474 29.5784 18.4395C29.5784 18.1639 29.6832 17.8221 30.3777 17.8221H33.4757C33.5418 17.4197 33.5749 17.1661 33.6356 16.7637H30.4162C28.9168 16.7637 28.1616 17.3921 28.1616 18.4395C28.1616 19.4758 28.8176 20.0161 29.9201 20.0161H31.3368C31.7612 20.0161 32.0148 20.3524 32.0148 20.7051C32.0148 20.9367 31.9101 21.4163 31.221 21.4163H30.984L26.4472 21.4052H25.6203C24.9202 21.4052 24.4296 21.0084 24.4296 20.0877V19.4538C24.4296 18.4946 24.81 17.8993 25.6203 17.8993H26.9653C27.0259 17.4914 27.0645 17.2322 27.1197 16.8464H25.4438H25.284C23.9114 16.8464 22.9632 17.767 22.9302 19.3711V19.4317V20.0877C22.9632 21.6919 23.9114 22.4581 25.284 22.4581H25.4438H26.6235L29.0821 22.4637H30.5484L31.1109 22.4636Z"
        fill="#27292D"
    />
</svg>