<svg
    width="48"
    height="32"
    viewBox="0 0 48 32"
    fill="none"
    xmlns="http://www.w3.org/2000/svg"
>
    <rect width="48" height="32" rx="4" fill="white" />
    <path
        fillRule="evenodd"
        clipRule="evenodd"
        d="M15.4 21.0002H12.8L10.4 13.2002C10.3088 12.8725 10.1039 12.5937 9.82222 12.4202C9.18889 12.0869 8.47778 11.8402 7.73333 11.7202V11.4002H11.8667C12.4 11.4002 12.8444 11.8402 12.9333 12.3735L14.1333 17.9735L16.7333 11.4002H19.2444L15.4 21.0002ZM20.7333 21.0002H18.3111L20.2889 11.4002H22.7111L20.7333 21.0002ZM26.2667 13.8669C26.3556 13.3335 26.8 13.0002 27.2444 13.0002C27.9556 12.9335 28.7556 13.1335 29.3778 13.5335L29.8222 11.6935C29.2 11.4002 28.5333 11.2802 27.8667 11.2802C25.5333 11.2802 23.8222 12.5869 23.8222 14.3335C23.8222 15.7069 24.9778 16.4669 25.8222 16.9069C26.7111 17.3469 27.0222 17.6335 27.0222 18.0269C27.0222 18.6269 26.3111 18.8935 25.6444 18.8935C24.8889 18.8935 24.1333 18.6735 23.4667 18.3002L23.0222 20.1402C23.7333 20.5135 24.5333 20.7002 25.3333 20.7002C27.8667 20.7669 29.5333 19.4735 29.5333 17.6335C29.5333 15.4935 26.2667 15.3735 26.2667 13.8669ZM38.1333 21.0002L36.2444 11.4002H34.2222C33.8222 11.4002 33.4222 11.6469 33.2889 12.0402L29.6444 21.0002H32.1556L32.6889 19.5335H35.8222L36.1333 21.0002H38.1333ZM34.7556 13.8669L35.3778 17.7535H33.3111L34.7556 13.8669Z"
        fill="#172B85"
    />
    <defs>
        <linearGradient
            id="paint0_linear_1234_1234"
            x1="24"
            y1="0"
            x2="24"
            y2="32"
            gradientUnits="userSpaceOnUse"
        >
            <stop stopColor="#FFFFFF" />
            <stop offset="1" stopColor="#F5F5F5" />
        </linearGradient>
    </defs>
</svg>