<svg width="200" height="200" viewBox="0 0 200 200" fill="none" xmlns="http://www.w3.org/2000/svg">
    <mask id="mask0_174_16706" style="mask-type:luminance" maskUnits="userSpaceOnUse" x="95" y="123"
        width="21" height="36">
        <path d="M99.7172 123.92L115.638 126.254L110.938 158.308L95.0176 155.973L99.7172 123.92Z"
            fill="white" />
    </mask>
    <g mask="url(#mask0_174_16706)">
        <path d="M99.7172 123.92L115.638 126.254L110.938 158.308L95.0176 155.973L99.7172 123.92Z"
            fill="#E39C76" />
        <path
            d="M112.84 132.875C109.988 140.328 102.746 143.902 95.1602 143.09L97.6562 132.727L112.84 132.875Z"
            fill="#D48F6E" />
    </g>
    <path
        d="M86.9648 108.785C89.1405 105.421 91.0507 103.66 92.3944 101.422C95.7187 95.8903 97.2147 91.1676 103.254 89.2184C105.23 88.3568 107.321 87.7857 109.461 87.5231C117.512 86.0426 127.43 90.6871 131.703 98.9059C136.605 108.375 131.73 118.242 130.531 120.695C124.879 132.14 113.168 136 108.316 137.156C105.559 138.051 102.696 138.576 99.8007 138.718C96.5858 138.843 87.9804 139.175 84.5663 133.613C83.6757 132.156 82.9101 129.218 83.1796 123.328C83.5233 115.711 84.7929 112.148 86.9648 108.785Z"
        fill="#E39C76" />
    <path
        d="M94.3202 118.782C94.289 118.782 94.2582 118.775 94.2304 118.76C94.2026 118.746 94.1785 118.726 94.1601 118.7C93.2031 117.333 92.9023 116.228 93.2773 115.411C94.0898 113.634 97.2656 114.845 100.781 110.068C100.812 110.026 100.858 109.997 100.909 109.989C100.96 109.981 101.013 109.994 101.055 110.025C101.097 110.055 101.125 110.101 101.133 110.152C101.141 110.204 101.128 110.256 101.098 110.298C97.5273 115.181 94.3593 114.013 93.6484 115.575C93.3359 116.255 93.621 117.228 94.496 118.474C94.5179 118.504 94.5305 118.54 94.5325 118.577C94.5345 118.615 94.5257 118.652 94.5072 118.684C94.4887 118.717 94.4612 118.743 94.4281 118.761C94.3949 118.778 94.3575 118.786 94.3202 118.782ZM96.1913 108.36C95.4531 109.607 94.2031 110.235 93.3945 109.759C92.5859 109.282 92.5273 107.884 93.2656 106.634C94.0038 105.384 95.2538 104.759 96.0624 105.235C96.871 105.712 96.9296 107.11 96.1913 108.36ZM108.773 115.778C108.035 117.028 106.785 117.653 105.976 117.177C105.168 116.7 105.109 115.302 105.848 114.052C106.586 112.802 107.836 112.177 108.644 112.653C109.453 113.13 109.508 114.532 108.773 115.778ZM96.2929 99.2511C96.2531 99.2186 96.22 99.1785 96.1957 99.1332C96.1714 99.0879 96.1563 99.0382 96.1512 98.9871C96.1461 98.9359 96.1512 98.8842 96.1661 98.835C96.181 98.7858 96.2055 98.74 96.2382 98.7003C96.3038 98.621 96.398 98.5708 96.5004 98.5605C96.6028 98.5503 96.7051 98.5809 96.7851 98.6456C98.582 100.107 100.941 100.345 102.883 99.0753C102.969 99.0279 103.07 99.0148 103.166 99.0387C103.261 99.0626 103.344 99.1217 103.398 99.2042C103.452 99.2866 103.472 99.3864 103.456 99.4835C103.439 99.5805 103.387 99.6677 103.309 99.7277C101.059 101.2 98.3281 100.907 96.2929 99.2511ZM115.762 110.278C115.687 110.279 115.614 110.257 115.551 110.217C115.488 110.177 115.438 110.12 115.406 110.052C113.586 106.146 109.387 106.462 109.207 106.478C109.156 106.482 109.104 106.477 109.055 106.461C109.006 106.446 108.96 106.421 108.92 106.388C108.841 106.321 108.791 106.226 108.781 106.122C108.772 106.019 108.804 105.916 108.871 105.836C108.937 105.756 109.033 105.706 109.137 105.696C109.184 105.696 114.059 105.306 116.113 109.716C116.142 109.776 116.156 109.842 116.153 109.908C116.149 109.974 116.129 110.039 116.094 110.095C116.059 110.151 116.01 110.198 115.951 110.23C115.893 110.262 115.828 110.279 115.762 110.278Z"
        fill="#2C3E50" />
    <path
        d="M101.676 147.244C101.676 147.244 78.9764 151.541 76.3163 157.268C73.6561 162.994 78.3631 181.807 78.3631 181.807H139.101C139.101 181.807 140.941 159.311 139.101 153.791C137.262 148.271 101.676 147.244 101.676 147.244Z"
        fill="#E39C76" />
    <path
        d="M125.195 71.9902C134.651 85.196 143.99 98.6999 153.211 112.502C143.176 129.893 127.539 142.666 108.016 148.084L135.828 177.533C167.629 128.732 174.57 124.482 174.07 113.521C173.66 104.506 168.004 97.834 156.687 84.4824C150.253 76.8908 143.133 69.9081 135.418 63.623L125.195 71.9902ZM34.1757 86.6387C32.6914 101.584 31.3945 113.326 30.5273 120.916C29.1289 133.205 28.5742 137.17 30.5273 142.553C33.7148 151.326 40.7499 156.092 50.4492 162.475C59.3794 168.335 69.1284 172.841 79.3789 175.846L97.1054 149.893C80.6346 148.661 64.6692 143.65 50.4492 135.248C49.2304 119.771 48.0143 104.294 46.8007 88.8145L34.1757 86.6387Z"
        fill="#E39C76" />
    <path
        d="M127.648 73.755C127.648 73.755 121.937 71.4464 121.937 67.3136C121.937 63.1808 123.031 56.5128 123.031 54.1925C123.031 51.8722 120.234 44.0948 121.937 43.9738C123.641 43.8527 131.887 53.7706 133.293 56.7745C134.699 59.7784 136.766 66.6456 136.766 66.6456L127.648 73.755ZM34.4765 93.4464C34.4765 93.4464 28.5859 82.8995 27.6132 79.173C26.6406 75.4464 34.2265 63.6027 34.2265 63.6027L39.2812 78.5167L34.4765 93.4464Z"
        fill="#E39C76" />
    <path
        d="M100.641 124.712C99.2929 122.435 96.2421 122.529 94.8945 124.712C94.8809 124.734 94.8632 124.753 94.8423 124.768C94.8214 124.783 94.7977 124.793 94.7727 124.799C94.7476 124.805 94.7217 124.806 94.6964 124.802C94.671 124.797 94.6467 124.788 94.6249 124.775C94.6032 124.761 94.5844 124.744 94.5695 124.723C94.5545 124.703 94.5439 124.68 94.538 124.655C94.5322 124.63 94.5314 124.605 94.5356 124.579C94.5398 124.554 94.5489 124.53 94.5624 124.509C94.9348 123.881 95.4803 123.373 96.1335 123.047C96.7868 122.721 97.5202 122.59 98.246 122.669C98.8083 122.758 99.3444 122.969 99.8168 123.287C100.289 123.604 100.686 124.022 100.98 124.509C100.994 124.531 101.003 124.556 101.006 124.582C101.01 124.607 101.009 124.634 101.002 124.659C100.996 124.684 100.985 124.708 100.969 124.729C100.954 124.75 100.934 124.767 100.912 124.78C100.89 124.794 100.865 124.803 100.839 124.806C100.814 124.81 100.787 124.809 100.762 124.802C100.737 124.796 100.713 124.785 100.692 124.769C100.672 124.754 100.654 124.734 100.641 124.712Z"
        fill="#2C3E50" />
    <path
        d="M59.6055 140.082L46.4258 159.801L73.582 177.512V181.809L141.293 181.785C141.215 177.712 141.135 173.635 141.055 169.555L161.977 138.777L146.129 122.832L112.688 146.602C112.688 146.602 113.277 155.441 105.328 155.684C97.3789 155.926 96.1445 148.465 96.1445 148.465L59.6055 140.082Z"
        fill="#FF8E34" />
    <path
        d="M141.262 187.891H73.582V177.512L141.203 177.406C141.336 180.77 141.363 184.27 141.262 187.891Z"
        fill="#FF8E34" />
    <path
        d="M73.582 177.512C73.582 177.512 77.0234 158.606 78.1172 158.372C79.2109 158.137 78.0156 179.528 79.6172 181.79C81.2188 184.051 97.1211 187.891 97.1211 187.891H73.582V177.512ZM141.055 169.551C141.055 169.551 135.059 149.786 133.848 149.419C132.637 149.051 134.695 171.294 133.848 175.856C133 180.419 119.141 187.891 119.141 187.891H141.262L141.055 169.551Z"
        fill="#E68233" />
    <path
        d="M95.6444 95.7423C95.6444 95.7423 93.9101 85.1486 104.199 84.965C104.199 84.965 105.832 79.2228 111.391 78.3244C116.949 77.4259 110.961 80.7853 120.43 82.1525C129.898 83.5197 148.312 107.207 137.008 117.348C137.008 117.348 140.582 130.848 114.351 135.188C114.351 135.188 120.937 128.012 126.234 114.93C124.867 113.434 123.951 111.58 123.595 109.585C123.238 107.589 123.454 105.534 124.219 103.656C126.797 96.9103 109.961 101.195 109.172 91.1564C109.172 91.1642 101.871 88.922 95.6444 95.7423Z"
        fill="#223344" />
    <path
        d="M120.445 120.476C123.23 117.949 127.18 117.742 129.262 120.046C131.344 122.351 130.773 126.25 127.988 128.781C125.203 131.312 121.254 131.515 119.172 129.21C117.09 126.906 117.66 123.007 120.445 120.476Z"
        fill="#E39C76" />
    <path
        d="M121.156 126.226C120.892 126.225 120.63 126.19 120.375 126.12C120.326 126.103 120.286 126.068 120.263 126.022C120.24 125.977 120.235 125.923 120.25 125.874C120.266 125.825 120.301 125.784 120.347 125.761C120.393 125.737 120.447 125.733 120.496 125.749C120.558 125.769 122.058 126.226 122.84 124.913C123.383 124.019 121.801 122.913 121.785 122.902C121.761 122.883 121.742 122.86 121.729 122.833C121.716 122.806 121.709 122.777 121.709 122.747C121.709 122.718 121.716 122.688 121.729 122.661C121.742 122.635 121.761 122.611 121.785 122.593C121.914 122.476 125.043 119.753 127.344 121.007C129.355 122.101 128.156 124.409 128.144 124.433C128.133 124.457 128.118 124.479 128.098 124.497C128.078 124.515 128.055 124.529 128.029 124.538C128.004 124.546 127.977 124.55 127.95 124.548C127.924 124.545 127.898 124.538 127.874 124.525C127.851 124.513 127.83 124.495 127.813 124.474C127.797 124.453 127.784 124.429 127.777 124.403C127.771 124.377 127.769 124.35 127.773 124.324C127.777 124.297 127.786 124.272 127.801 124.249C127.84 124.167 128.828 122.261 127.156 121.351C125.39 120.39 122.918 122.183 122.226 122.734C122.703 123.124 123.789 124.136 123.191 125.116C122.985 125.469 122.686 125.758 122.328 125.953C121.969 126.149 121.564 126.243 121.156 126.226Z"
        fill="#2C3E50" />
    <path
        d="M50.4646 135.257C45.6326 136.675 41.7029 137.894 38.9139 138.773C35.0936 139.98 34.1951 140.312 34.2264 140.546C34.3123 141.042 38.6287 141.155 42.6756 139.878C45.5858 138.942 48.2479 137.362 50.4646 135.257ZM153.211 112.499C153.211 112.499 162.898 113.155 168.734 111.058C174.57 108.96 165.035 119.386 153.211 112.499Z"
        fill="#D48F6E" />
    <path
        d="M143.851 58.078C142.629 58.078 142.004 58.5038 142.004 59.3593C141.998 59.7823 142.106 60.1991 142.316 60.5663C142.707 61.3241 143.387 61.9101 143.93 61.9101C144.664 61.9101 145.57 60.4374 145.64 59.7108V59.3749C145.64 58.5038 145.039 58.078 143.851 58.078ZM143.152 36.2304C141.09 36.9101 139.398 38.2538 138.836 40.3554C138.273 42.4569 138.926 44.4765 141.051 44.4765C141.598 44.4765 141.984 43.9726 141.984 43.328L141.945 42.4921C141.929 41.3416 142.254 40.2121 142.879 39.246C144.199 37.1718 147.359 36.953 148.832 39.0312C150.305 41.1093 150.34 43.8085 147.703 46.9491C145.308 49.7929 140.644 53.4921 142.277 56.3046C142.473 56.635 142.757 56.9045 143.097 57.0832C143.437 57.2618 143.82 57.3425 144.203 57.3163C145.078 57.2187 145.508 56.6757 145.508 55.664C145.508 51.4608 153.211 47.9218 153.211 41.7929C153.254 40.5901 152.928 39.4028 152.277 38.3905C150.39 35.6913 146.351 35.203 143.152 36.2304Z"
        fill="#2C3E50" />
    <path
        d="M28.5585 36.7385L94.0585 12.3674C94.9867 12.0214 96.0093 12.0262 96.9342 12.3808C97.8591 12.7354 98.6228 13.4154 99.0819 14.2931L120.789 55.7853C121.056 56.2971 121.212 56.8598 121.245 57.4363C121.278 58.0127 121.188 58.5895 120.981 59.1286C120.774 59.6676 120.455 60.1564 120.045 60.5626C119.635 60.9688 119.143 61.2831 118.601 61.4845L42.0898 89.9533C41.5492 90.1529 40.9724 90.2354 40.3975 90.1954C39.8226 90.1554 39.2628 89.9938 38.7551 89.7213C38.2473 89.4488 37.8033 89.0716 37.4522 88.6146C37.1011 88.1576 36.8511 87.6313 36.7187 87.0705L26.0155 41.4806C25.7889 40.5161 25.9222 39.502 26.3905 38.6288C26.8587 37.7556 27.6297 37.0834 28.5585 36.7385Z"
        fill="#27AE60" />
    <path
        d="M38.5448 95.6559L124.966 63.4301C125.945 63.0653 126.442 61.9764 126.077 60.9981L123.112 53.0447C122.747 52.0664 121.658 51.569 120.679 51.9338L34.2579 84.1596C33.2796 84.5244 32.7822 85.6133 33.147 86.5916L36.1127 94.5449C36.4776 95.5233 37.5664 96.0207 38.5448 95.6559Z"
        fill="#27AE60" />
    <path
        d="M89.1756 21.0941C89.5336 20.9603 89.9145 20.8984 90.2965 20.912C90.6785 20.9256 91.054 21.0144 91.4016 21.1733C91.7492 21.3322 92.0621 21.5582 92.3222 21.8382C92.5824 22.1182 92.7848 22.4467 92.9178 22.8051L103.191 50.4144C103.324 50.7735 103.385 51.1553 103.371 51.538C103.357 51.9207 103.267 52.2968 103.107 52.6448C102.947 52.9929 102.721 53.306 102.44 53.5664C102.159 53.8268 101.83 54.0294 101.471 54.1625C101.111 54.2956 100.73 54.3567 100.347 54.3423C99.9643 54.3278 99.5882 54.2382 99.2401 54.0784C98.8921 53.9186 98.5789 53.6918 98.3185 53.411C98.0581 53.1302 97.8556 52.8009 97.7225 52.4418L87.4647 24.8402C87.3308 24.4819 87.2688 24.1008 87.2824 23.7185C87.2959 23.3362 87.3847 22.9604 87.5436 22.6125C87.7025 22.2646 87.9284 21.9514 88.2084 21.6909C88.4885 21.4303 88.8171 21.2275 89.1756 21.0941ZM75.9139 26.0355C76.6351 25.7669 77.4332 25.7949 78.1338 26.1134C78.8344 26.4318 79.3803 27.0148 79.6522 27.7348L89.9256 55.348C90.1945 56.0732 90.1642 56.8755 89.8415 57.5784C89.5188 58.2813 88.9301 58.8272 88.2049 59.0961C87.4797 59.3649 86.6774 59.3347 85.9745 59.012C85.2716 58.6893 84.7257 58.1006 84.4569 57.3754L74.2186 29.7738C74.0844 29.417 74.0218 29.0373 74.0344 28.6564C74.047 28.2754 74.1345 27.9007 74.292 27.5535C74.4494 27.2064 74.6736 26.8937 74.9519 26.6332C75.2302 26.3728 75.5571 26.1697 75.9139 26.0355ZM62.6483 30.973C63.0071 30.8363 63.3896 30.7721 63.7735 30.7842C64.1573 30.7963 64.535 30.8845 64.8845 31.0436C65.234 31.2028 65.5485 31.4297 65.8097 31.7113C66.0709 31.9929 66.2736 32.3235 66.4061 32.684L76.6795 60.2933C76.9484 61.016 76.9191 61.8158 76.5983 62.5168C76.2774 63.2179 75.6912 63.7628 74.9686 64.0316C74.246 64.3005 73.4461 64.2712 72.7451 63.9504C72.044 63.6295 71.4991 63.0433 71.2303 62.3207L60.9373 34.7113C60.6693 33.9887 60.699 33.1892 61.0197 32.4884C61.3405 31.7875 61.9262 31.2426 62.6483 30.973ZM49.3826 35.9066C50.1058 35.6385 50.9058 35.668 51.6073 35.9887C52.3088 36.3095 52.8545 36.8952 53.1248 37.6176L63.3983 65.2348C63.6671 65.96 63.6368 66.7622 63.3142 67.4651C62.9915 68.168 62.4028 68.714 61.6776 68.9828C60.9524 69.2516 60.1501 69.2214 59.4472 68.8987C58.7443 68.576 58.1984 67.9873 57.9295 67.2621L47.6561 39.6449C47.5238 39.2861 47.4635 38.9047 47.4787 38.5226C47.4939 38.1405 47.5842 37.7651 47.7446 37.4179C47.9049 37.0707 48.1321 36.7586 48.4132 36.4992C48.6943 36.2399 49.0237 36.0385 49.3826 35.9066ZM36.1209 40.8441C36.4787 40.7104 36.8593 40.6485 37.241 40.6622C37.6227 40.6758 37.9979 40.7646 38.3452 40.9236C38.6925 41.0825 39.005 41.3085 39.2648 41.5884C39.5246 41.8684 39.7266 42.1969 39.8592 42.5551L50.1326 70.1644C50.266 70.5235 50.3274 70.9054 50.3132 71.2882C50.299 71.6709 50.2095 72.0472 50.0499 72.3954C49.8903 72.7436 49.6637 73.057 49.383 73.3176C49.1023 73.5783 48.773 73.7811 48.4139 73.9144C48.0548 74.0478 47.673 74.1091 47.2902 74.095C46.9074 74.0808 46.5311 73.9913 46.1829 73.8317C45.8347 73.6721 45.5213 73.4455 45.2607 73.1648C45.0001 72.8841 44.7973 72.5548 44.6639 72.1957L34.3904 44.5824C34.2572 44.2234 34.1963 43.8416 34.2112 43.459C34.2261 43.0764 34.3166 42.7005 34.4775 42.353C34.6383 42.0056 34.8664 41.6933 35.1484 41.4344C35.4305 41.1754 35.761 40.9748 36.1209 40.8441Z"
        fill="#2C3E50" />
    <path d="M118.746 52.6484L34.4766 79.0937L35.5352 83.6094L118.746 52.6484Z" fill="#1B8448" />
    <path
        d="M83.8475 72.9917C84.2465 73.05 84.6301 73.1864 84.9763 73.3932C85.3226 73.6 85.6246 73.873 85.8652 74.1966C86.1057 74.5203 86.2801 74.8882 86.3783 75.2794C86.4765 75.6705 86.4965 76.0772 86.4373 76.4761L82.9529 100.144C82.9004 100.548 82.768 100.938 82.5633 101.29C82.3586 101.643 82.0858 101.951 81.7607 102.197C81.4357 102.443 81.0649 102.622 80.67 102.723C80.2752 102.824 79.8641 102.845 79.4609 102.786C79.0576 102.727 78.6702 102.588 78.3213 102.377C77.9724 102.166 77.6689 101.888 77.4285 101.559C77.1881 101.23 77.0157 100.856 76.9214 100.46C76.827 100.063 76.8125 99.6517 76.8787 99.2495L80.3631 75.5815C80.4818 74.7761 80.9156 74.0508 81.569 73.5651C82.2224 73.0795 83.042 72.8732 83.8475 72.9917Z"
        fill="#223344" />
    <path
        d="M83.7539 79.1758C86.8044 79.1758 89.2773 76.7029 89.2773 73.6523C89.2773 70.6018 86.8044 68.1289 83.7539 68.1289C80.7034 68.1289 78.2305 70.6018 78.2305 73.6523C78.2305 76.7029 80.7034 79.1758 83.7539 79.1758Z"
        fill="#2C3E50" />
</svg>
    