<svg width="32" height="32" viewBox="0 0 32 32" fill="none" xmlns="http://www.w3.org/2000/svg">
    <g clip-path="url(#clip0_506_18579)">
        <path
            d="M27.0455 32.0003H19.9497C19.432 32.0003 19.0122 31.5805 19.0122 31.0628V14.9961C19.0122 14.4783 19.432 14.0586 19.9497 14.0586H29.0538C29.1868 14.0586 29.3182 14.0869 29.4393 14.1416C29.5605 14.1962 29.6687 14.276 29.7566 14.3757C29.8446 14.4753 29.9104 14.5926 29.9496 14.7196C29.9888 14.8466 30.0006 14.9805 29.9841 15.1124L27.9758 31.179C27.9172 31.6482 27.5183 32.0003 27.0455 32.0003Z"
            fill="#21A458" />
        <path
            d="M12.0499 32.0003H4.95412C4.72562 32.0003 4.50498 31.9169 4.33368 31.7657C4.16238 31.6144 4.05221 31.4058 4.02387 31.1791L2.01556 15.1124C1.99905 14.9805 2.01078 14.8466 2.04998 14.7196C2.08918 14.5925 2.15496 14.4753 2.24293 14.3756C2.33091 14.276 2.43908 14.1962 2.56027 14.1415C2.68145 14.0868 2.81287 14.0586 2.94581 14.0586H12.0499C12.5677 14.0586 12.9874 14.4783 12.9874 14.9961V31.0628C12.9874 31.5806 12.5677 32.0003 12.0499 32.0003Z"
            fill="#27AE60" />
        <path
            d="M19.9503 32.0003H12.0503V15.9336C12.0503 15.4158 12.47 14.9961 12.9878 14.9961H19.0128C19.5305 14.9961 19.9503 15.4158 19.9503 15.9336V32.0003Z"
            fill="#F4A261" />
        <path
            d="M19.0125 14.9961H16V32.0003H19.95V15.9336C19.95 15.4158 19.5303 14.9961 19.0125 14.9961Z"
            fill="#F2994A" />
        <path
            d="M18.0085 9.90837C17.4907 9.90837 17.071 9.48862 17.071 8.97087C17.071 8.45312 17.4907 8.03337 18.0085 8.03337C22.0492 8.03337 24.1566 5.76875 24.1566 3.80144C24.1566 2.59519 23.3598 1.875 22.0251 1.875C19.5954 1.875 17.6085 6.42906 16.9095 9.19869C16.8586 9.40132 16.7415 9.58117 16.5768 9.70969C16.412 9.8382 16.2091 9.90804 16.0002 9.90812H15.9997C15.7907 9.90807 15.5877 9.83819 15.423 9.70957C15.2583 9.58095 15.1413 9.40098 15.0906 9.19825C14.6825 7.57837 12.7546 1.875 9.97519 1.875C8.64056 1.875 7.84375 2.59513 7.84375 3.80144C7.84375 5.76644 9.94537 8.03337 13.9918 8.03337C14.5096 8.03337 14.9293 8.45312 14.9293 8.97087C14.9293 9.48862 14.5096 9.90837 13.9918 9.90837C8.30212 9.90837 5.96875 6.29638 5.96875 3.80144C5.96881 1.86738 7.29675 0 9.97519 0C11.8643 0 14.1162 1.35388 16.0002 6.02238C17.8857 1.35019 20.1387 0 22.0252 0C24.6996 0 26.0316 1.86219 26.0316 3.80144C26.0316 6.28369 23.7042 9.90837 18.0085 9.90837Z"
            fill="#F4A261" />
        <path
            d="M15.9999 6.02238C17.8854 1.35019 20.1385 0 22.0249 0C24.6994 0 26.0314 1.86219 26.0314 3.80144C26.0314 6.28369 23.704 9.90837 18.0083 9.90837C17.4906 9.90837 17.0708 9.48862 17.0708 8.97087C17.0708 8.45312 17.4906 8.03337 18.0083 8.03337C22.049 8.03337 24.1564 5.76875 24.1564 3.80144C24.1564 2.59519 23.3596 1.875 22.0249 1.875C19.5952 1.875 17.6083 6.42906 16.9093 9.19869C16.8584 9.40132 16.7413 9.58117 16.5766 9.70969C16.4119 9.8382 16.2089 9.90804 16 9.90812H15.9995L15.9999 6.02238Z"
            fill="#F2994A" />
        <path
            d="M12.05 15.9352H1.69063C1.46213 15.9352 1.24149 15.8518 1.07019 15.7005C0.89889 15.5493 0.78872 15.3407 0.760385 15.114L0.00725993 9.08897C-0.00925337 8.95706 0.00248012 8.82315 0.0416815 8.69612C0.0808829 8.56909 0.146655 8.45185 0.234633 8.35219C0.322611 8.25252 0.430782 8.17271 0.551964 8.11805C0.673147 8.0634 0.80457 8.03514 0.93751 8.03516H12.05C12.5678 8.03516 12.9875 8.45491 12.9875 8.97266V14.9977C12.9875 15.5155 12.5678 15.9352 12.05 15.9352Z"
            fill="#32C16E" />
        <path
            d="M30.3091 15.9352H19.9497C19.432 15.9352 19.0122 15.5154 19.0122 14.9977V8.97266C19.0122 8.45491 19.432 8.03516 19.9497 8.03516H31.0622C31.1951 8.03517 31.3265 8.06345 31.4477 8.11811C31.5689 8.17278 31.677 8.25259 31.765 8.35225C31.853 8.45191 31.9188 8.56913 31.958 8.69615C31.9972 8.82316 32.0089 8.95706 31.9925 9.08897L31.2393 15.114C31.1808 15.5831 30.7819 15.9352 30.3091 15.9352Z"
            fill="#27AE60" />
        <path d="M12.0503 8.03516H19.9503V15.9352H12.0503V8.03516Z" fill="#EB9345" />
        <path d="M16 8.03516H19.95V15.9352H16V8.03516Z" fill="#F4A261" />
    </g>
    <defs>
        <clipPath id="clip0_506_18579">
            <rect width="32" height="32" fill="white" />
        </clipPath>
    </defs>
</svg>
    