<svg width="40" height="41" viewBox="0 0 40 41" fill="none" xmlns="http://www.w3.org/2000/svg">
    <g clip-path="url(#clip0_1443_3717)">
        <path
            d="M35.9385 31.6002C36.1204 31.6002 36.2948 31.5279 36.4234 31.3993C36.552 31.2707 36.6242 31.0963 36.6242 30.9144V29.5429C36.6242 29.361 36.552 29.1866 36.4234 29.058C36.2948 28.9294 36.1204 28.8572 35.9385 28.8572C35.7566 28.8572 35.5822 28.9294 35.4536 29.058C35.325 29.1866 35.2527 29.361 35.2527 29.5429V30.9144C35.2527 31.0963 35.325 31.2707 35.4536 31.3993C35.5822 31.5279 35.7566 31.6002 35.9385 31.6002ZM35.9385 32.9717C35.7566 32.9717 35.5822 33.0439 35.4536 33.1725C35.325 33.3011 35.2527 33.4756 35.2527 33.6574V35.029C35.2527 35.2108 35.325 35.3852 35.4536 35.5139C35.5822 35.6425 35.7566 35.7147 35.9385 35.7147C36.1204 35.7147 36.2948 35.6425 36.4234 35.5139C36.552 35.3852 36.6242 35.2108 36.6242 35.029V33.6574C36.6242 33.4756 36.552 33.3011 36.4234 33.1725C36.2948 33.0439 36.1204 32.9717 35.9385 32.9717ZM33.1955 31.6002C33.0136 31.6002 32.8392 31.6724 32.7106 31.801C32.582 31.9296 32.5097 32.1041 32.5097 32.2859C32.5097 32.4678 32.582 32.6422 32.7106 32.7708C32.8392 32.8994 33.0136 32.9717 33.1955 32.9717H34.567C34.7488 32.9717 34.9233 32.8994 35.0519 32.7708C35.1805 32.6422 35.2527 32.4678 35.2527 32.2859C35.2527 32.1041 35.1805 31.9296 35.0519 31.801C34.9233 31.6724 34.7488 31.6002 34.567 31.6002H33.1955ZM38.6815 31.6002H37.31C37.1281 31.6002 36.9537 31.6724 36.8251 31.801C36.6965 31.9296 36.6242 32.1041 36.6242 32.2859C36.6242 32.4678 36.6965 32.6422 36.8251 32.7708C36.9537 32.8994 37.1281 32.9717 37.31 32.9717H38.6815C38.8634 32.9717 39.0378 32.8994 39.1664 32.7708C39.295 32.6422 39.3672 32.4678 39.3672 32.2859C39.3672 32.1041 39.295 31.9296 39.1664 31.801C39.0378 31.6724 38.8634 31.6002 38.6815 31.6002ZM10.3549 23.4034C9.84727 24.1383 7.31427 27.893 7.31427 29.631C7.31427 31.6187 8.93162 33.2355 10.9191 33.2355C12.9066 33.2355 14.5239 31.6185 14.5239 29.631C14.5239 27.8928 11.9909 24.1383 11.4833 23.4034C11.2275 23.0322 10.6107 23.0322 10.3549 23.4034ZM10.9191 31.864C9.68749 31.864 8.68578 30.8621 8.68578 29.631C8.68578 28.7778 9.89185 26.6269 10.9191 25.031C11.9825 26.6857 13.1524 28.8153 13.1524 29.631C13.1526 30.8621 12.1507 31.864 10.9191 31.864Z"
            fill="#7D5FFF" />
        <path
            d="M1.31854 3.1414C1.69727 3.1414 2.00429 2.83438 2.00429 2.45565C2.00429 2.07692 1.69727 1.7699 1.31854 1.7699C0.939804 1.7699 0.632782 2.07692 0.632782 2.45565C0.632782 2.83438 0.939804 3.1414 1.31854 3.1414Z"
            fill="#7D5FFF" />
        <path
            d="M25.6628 9.31318C26.9861 9.31318 28.0629 8.23638 28.0629 6.91305C28.0629 5.58971 26.9861 4.51291 25.6628 4.51291C24.3394 4.51291 23.2626 5.58971 23.2626 6.91305C23.2626 8.23638 24.3394 9.31318 25.6628 9.31318ZM25.6628 5.88442C26.2301 5.88442 26.6914 6.34576 26.6914 6.91305C26.6914 7.48034 26.2301 7.94168 25.6628 7.94168C25.0955 7.94168 24.6341 7.48034 24.6341 6.91305C24.6341 6.34576 25.0957 5.88442 25.6628 5.88442Z"
            fill="#7D5FFF" />
        <path
            d="M36.292 38.8006H24.0403C24.0535 38.7762 24.0696 38.7546 24.0819 38.7296C24.5836 37.7123 24.1646 36.4764 23.1478 35.9743L20.3806 34.6077C20.2698 34.5532 20.2249 34.4608 20.2078 34.4106C20.1906 34.3603 20.1702 34.2595 20.2249 34.1491L20.2253 34.1488C20.2451 34.1084 20.2727 34.0723 20.3066 34.0427C20.3404 34.013 20.3798 33.9903 20.4224 33.976C20.5085 33.9469 20.6026 33.953 20.6842 33.9931L23.451 35.3593C24.4684 35.8626 25.7046 35.4433 26.2067 34.4255C26.3271 34.1836 26.3983 33.9202 26.4161 33.6505C26.4339 33.3809 26.398 33.1104 26.3105 32.8548C26.2244 32.5985 26.0884 32.3619 25.9103 32.1587C25.7321 31.9554 25.5154 31.7894 25.2728 31.6705L22.5056 30.3039C22.3948 30.2494 22.3499 30.157 22.3328 30.1068C22.3156 30.0565 22.2952 29.9557 22.3499 29.845C22.3905 29.7637 22.4615 29.7018 22.5476 29.6726C22.6336 29.6435 22.7277 29.6495 22.8094 29.6893L25.5765 31.0559C25.8186 31.1759 26.0821 31.2469 26.3517 31.2647C26.6214 31.2825 26.8919 31.2467 27.1476 31.1594C27.4038 31.0733 27.6403 30.9372 27.8435 30.7591C28.0467 30.581 28.2126 30.3643 28.3316 30.1217C28.8342 29.1047 28.4152 27.8688 27.3981 27.3663L24.6309 26.0001C24.5701 25.9701 24.5196 25.9227 24.4858 25.8639C24.452 25.8052 24.4363 25.7377 24.4408 25.67C24.4452 25.6024 24.4697 25.5376 24.5109 25.4838C24.5522 25.43 24.6085 25.3897 24.6727 25.3679C24.7587 25.3388 24.8527 25.3449 24.9342 25.385L27.7013 26.7512C27.9432 26.8719 28.2067 26.9432 28.4765 26.961C28.7462 26.9788 29.0168 26.9427 29.2724 26.8549C29.5286 26.769 29.7653 26.6331 29.9686 26.455C30.1719 26.2769 30.3378 26.0602 30.4567 25.8176C30.5771 25.5756 30.6483 25.3121 30.6661 25.0424C30.6839 24.7727 30.648 24.5022 30.5604 24.2465C30.4745 23.9903 30.3386 23.7536 30.1605 23.5503C29.9824 23.3471 29.7657 23.1811 29.5231 23.0622L26.7559 21.696C26.6744 21.6556 26.6123 21.5845 26.5832 21.4984C26.554 21.4123 26.5601 21.3182 26.6002 21.2366C26.6407 21.1553 26.7117 21.0934 26.7977 21.0642C26.8837 21.0351 26.9777 21.041 27.0593 21.0809L29.8268 22.4471C30.8435 22.9508 32.0801 22.5304 32.5819 21.5129C33.0838 20.4959 32.6652 19.26 31.6484 18.7579L28.8812 17.3917C28.7704 17.3368 28.7252 17.2444 28.708 17.1942C28.6909 17.144 28.6708 17.0435 28.7259 16.9324C28.7661 16.8511 28.837 16.789 28.923 16.7598C29.009 16.7306 29.103 16.7367 29.1845 16.7768L31.9516 18.143C32.1936 18.2633 32.4571 18.3344 32.7268 18.3522C32.9965 18.37 33.267 18.3341 33.5227 18.2467C33.7789 18.1606 34.0156 18.0246 34.2188 17.8465C34.4221 17.6684 34.5881 17.4517 34.707 17.209C34.8274 16.967 34.8986 16.7036 34.9164 16.434C34.9342 16.1644 34.8983 15.8939 34.8107 15.6382C34.7247 15.382 34.5886 15.1454 34.4105 14.9421C34.2324 14.7388 34.0157 14.5729 33.773 14.4539L28.6573 11.928C27.408 11.3118 25.8928 11.8254 25.277 13.0735L19.1474 25.4884V11.6504C19.1474 9.60549 17.4836 7.94169 15.4387 7.94169H14.2909V3.14141C14.2909 2.95954 14.2187 2.78511 14.0901 2.65651C13.9615 2.52791 13.787 2.45566 13.6052 2.45566H8.21C8.02813 2.45566 7.85371 2.52791 7.7251 2.65651C7.5965 2.78511 7.52425 2.95954 7.52425 3.14141V7.94169H6.37647C4.33138 7.94169 2.66757 9.60549 2.66757 11.6504V37.4639C2.66757 38.9573 3.88238 40.1721 5.37578 40.1721H36.292C36.4738 40.1721 36.6483 40.0998 36.7769 39.9712C36.9055 39.8426 36.9777 39.6682 36.9777 39.4863C36.9777 39.3045 36.9055 39.13 36.7769 39.0014C36.6483 38.8728 36.4738 38.8006 36.292 38.8006ZM19.5789 38.8006H18.7809C18.8395 38.6984 18.8992 38.5971 18.9443 38.4872L19.5789 38.8006ZM26.5073 13.6802C26.574 13.5444 26.667 13.423 26.7808 13.3232C26.8946 13.2235 27.0271 13.1472 27.1706 13.0989C27.3138 13.0501 27.4653 13.0301 27.6164 13.04C27.7674 13.05 27.9149 13.0897 28.0506 13.1568L33.1666 15.6832C33.2475 15.7228 33.3197 15.7781 33.3791 15.8458C33.4384 15.9135 33.4838 15.9923 33.5126 16.0776C33.5417 16.1629 33.5536 16.2531 33.5477 16.343C33.5418 16.4328 33.5181 16.5207 33.4781 16.6014C33.3971 16.764 33.2551 16.888 33.0831 16.9463C32.9111 17.0046 32.7229 16.9925 32.5597 16.9127L29.7926 15.5465C29.5909 15.4463 29.3713 15.3871 29.1466 15.3722C28.9218 15.3574 28.6964 15.3873 28.4833 15.4601C28.2698 15.5317 28.0727 15.645 27.9033 15.7934C27.7339 15.9417 27.5956 16.1222 27.4965 16.3243C27.2935 16.7351 27.2628 17.2002 27.4097 17.634C27.5567 18.0677 27.8637 18.4181 28.2743 18.6208L31.0415 19.9869C31.2043 20.0677 31.3285 20.2097 31.3869 20.3818C31.4452 20.554 31.433 20.7422 31.3528 20.9053C31.185 21.2446 30.7725 21.3845 30.4344 21.217L27.6672 19.8508C26.8198 19.4323 25.7898 19.7809 25.3712 20.6286C24.9525 21.4764 25.3016 22.5067 26.149 22.9251L28.9165 24.2912C28.9974 24.3309 29.0695 24.3863 29.1289 24.454C29.1882 24.5218 29.2335 24.6007 29.2621 24.6861C29.2913 24.7714 29.3033 24.8616 29.2973 24.9516C29.2914 25.0415 29.2677 25.1294 29.2277 25.2102C29.188 25.291 29.1327 25.3632 29.0649 25.4225C28.9971 25.4819 28.9182 25.5271 28.8328 25.5558C28.7476 25.585 28.6574 25.5971 28.5675 25.5911C28.4776 25.5852 28.3898 25.5615 28.3091 25.5213L25.5419 24.1551C25.3402 24.055 25.1206 23.9958 24.8959 23.981C24.6712 23.9661 24.4458 23.996 24.2326 24.0687C24.0191 24.1404 23.822 24.2537 23.6526 24.4021C23.4832 24.5505 23.3449 24.731 23.2458 24.9333C22.8274 25.781 23.1762 26.811 24.0237 27.2294L26.7908 28.5955C26.8718 28.6353 26.944 28.6907 27.0034 28.7585C27.0628 28.8263 27.1081 28.9053 27.1368 28.9907C27.166 29.076 27.178 29.1662 27.172 29.2561C27.166 29.346 27.1422 29.4338 27.102 29.5145C27.0623 29.5953 27.0071 29.6675 26.9394 29.7269C26.8717 29.7863 26.7929 29.8317 26.7075 29.8604C26.6223 29.8896 26.5321 29.9015 26.4422 29.8956C26.3523 29.8897 26.2645 29.866 26.1838 29.826L23.4166 28.4594C22.5688 28.0413 21.5388 28.3898 21.1202 29.2379C20.9175 29.6485 20.8872 30.1135 21.0341 30.5472C21.181 30.9809 21.4881 31.3314 21.8987 31.534L24.6659 32.9005C24.7467 32.9402 24.8189 32.9955 24.8783 33.0632C24.9377 33.1309 24.9831 33.2097 25.0118 33.295C25.0409 33.3803 25.0528 33.4704 25.0469 33.5603C25.041 33.6502 25.0174 33.738 24.9774 33.8188C24.8965 33.9816 24.7545 34.1058 24.5823 34.1641C24.4101 34.2225 24.2218 34.2102 24.0586 34.1301L21.2918 32.7639C21.09 32.6639 20.8704 32.6048 20.6456 32.5899C20.4209 32.575 20.1954 32.6047 19.9822 32.6772C19.7687 32.749 19.5716 32.8624 19.4022 33.0108C19.2328 33.1593 19.0945 33.3398 18.9954 33.5421C18.8951 33.7437 18.8358 33.9633 18.821 34.188C18.8061 34.4128 18.836 34.6382 18.909 34.8513C18.9806 35.0648 19.0939 35.262 19.2423 35.4314C19.3907 35.6008 19.5713 35.739 19.7735 35.8381L22.5404 37.2043C22.7033 37.285 22.8276 37.4271 22.886 37.5993C22.9445 37.7715 22.9322 37.9599 22.852 38.1231C22.771 38.2856 22.629 38.4095 22.457 38.4678C22.2849 38.5262 22.0968 38.5141 21.9336 38.4344L18.8385 36.9062C18.7843 36.8684 18.7247 36.839 18.6617 36.8189L16.8176 35.9084C16.2481 35.6271 16.0137 34.9347 16.2945 34.3651L26.5073 13.6802ZM4.03908 14.1135H17.7766V19.5995H4.03908V14.1135ZM8.89576 3.82716H12.9203V7.94169H8.89576V3.82716ZM6.3763 9.31319H15.4394C16.7283 9.31319 17.7766 10.3615 17.7766 11.6504V12.742H4.03908V11.6504C4.03908 10.3615 5.0876 9.31319 6.3763 9.31319ZM5.37578 38.8006C4.63877 38.8006 4.03908 38.2009 4.03908 37.4639V20.971H17.7766V28.1714C17.7766 28.1951 17.7878 28.2151 17.7902 28.2383L15.0651 33.7576C14.9175 34.0544 14.8301 34.3776 14.8082 34.7084C14.7863 35.0393 14.8303 35.3712 14.9376 35.6849C15.0433 35.9991 15.2102 36.2893 15.4287 36.5386C15.6473 36.7879 15.913 36.9915 16.2107 37.1375L17.7053 37.8753C17.5306 38.4104 17.0327 38.8006 16.4401 38.8006H5.37578Z"
            fill="#7D5FFF" />
    </g>
    <defs>
        <clipPath id="clip0_1443_3717">
            <rect width="40" height="40" fill="white" transform="translate(0 0.971008)" />
        </clipPath>
    </defs>
</svg>
    