<svg width="40" height="41" viewBox="0 0 40 41" fill="none" xmlns="http://www.w3.org/2000/svg">
    <path
        d="M28.135 13.901V16.596C28.135 16.8548 28.345 17.0648 28.6038 17.0648H34.535C34.6593 17.0648 34.7786 17.0154 34.8665 16.9275C34.9544 16.8395 35.0038 16.7203 35.0038 16.596V13.901C35.0038 13.7767 34.9544 13.6575 34.8665 13.5695C34.7786 13.4816 34.6593 13.4323 34.535 13.4323H28.6038C28.4794 13.4323 28.3602 13.4816 28.2723 13.5695C28.1844 13.6575 28.135 13.7767 28.135 13.901ZM29.0725 14.3698H34.0663V16.1273H29.0725V14.3698Z"
        fill="#27AE60" />
    <path
        d="M35.3812 32.5854C35.4977 32.5855 35.6101 32.5422 35.6964 32.464C35.7827 32.3857 35.8368 32.2782 35.8481 32.1623L37.9688 10.5123V8.39351C37.9688 8.26919 37.9194 8.14996 37.8315 8.06205C37.7435 7.97414 37.6243 7.92476 37.5 7.92476H25.6381C25.5138 7.92476 25.3946 7.97414 25.3067 8.06205C25.2188 8.14996 25.1694 8.26919 25.1694 8.39351L25.1719 10.5579L26.5156 24.2623C26.1993 23.278 25.6455 22.3868 24.9031 21.6673L23.1912 20.0173C23.1447 19.9721 23.0893 19.9372 23.0285 19.9146C22.9678 19.892 22.903 19.8824 22.8382 19.8862C22.7735 19.89 22.7103 19.9072 22.6526 19.9368C22.5949 19.9664 22.544 20.0076 22.5031 20.0579C21.6342 21.1238 20.4669 21.9062 19.1506 22.3048C19.0316 22.3408 18.9318 22.4227 18.8731 22.5323C18.8145 22.642 18.8018 22.7704 18.8378 22.8894C18.8739 23.0085 18.9557 23.1083 19.0654 23.1669C19.175 23.2256 19.3035 23.2383 19.4225 23.2023C20.7517 22.8001 21.9503 22.0521 22.8956 21.0348L24.2519 22.3423C25.1755 23.238 25.7466 24.4357 25.8612 25.7173H14.1613C14.2288 25.3686 14.3728 25.0392 14.5831 24.7529C14.7933 24.4666 15.0644 24.2305 15.3769 24.0616C15.3875 24.0579 15.3969 24.0529 15.4075 24.0479C15.6418 23.9232 15.8949 23.8377 16.1569 23.7948L17.49 23.5835C17.5522 23.5755 17.6121 23.5551 17.6663 23.5236C17.7205 23.492 17.7678 23.4499 17.8054 23.3997C17.843 23.3495 17.8701 23.2923 17.8852 23.2315C17.9003 23.1706 17.9031 23.1074 17.8933 23.0454C17.8835 22.9835 17.8614 22.9242 17.8283 22.8709C17.7951 22.8177 17.7517 22.7716 17.7004 22.7355C17.6492 22.6994 17.5912 22.6739 17.53 22.6606C17.4687 22.6472 17.4054 22.6463 17.3438 22.6579L16.01 22.8691C15.895 22.8873 15.7881 22.9235 15.6775 22.9523V13.471C15.677 13.0153 15.4958 12.5784 15.1735 12.2562C14.8513 11.934 14.4144 11.7528 13.9587 11.7523H11.9794V7.84601C11.9794 7.72169 11.93 7.60246 11.8421 7.51455C11.7542 7.42664 11.6349 7.37726 11.5106 7.37726H11.0419V5.63413H15.625C15.7493 5.63413 15.8685 5.58475 15.9565 5.49684C16.0444 5.40893 16.0938 5.2897 16.0938 5.16538V3.47101C16.0938 3.34669 16.0444 3.22746 15.9565 3.13955C15.8685 3.05164 15.7493 3.00226 15.625 3.00226H6.19812C6.0738 3.00226 5.95458 3.05164 5.86667 3.13955C5.77876 3.22746 5.72937 3.34669 5.72937 3.47101V5.16538C5.72937 5.42413 5.93937 5.63413 6.19812 5.63413H6.66687V7.37726H6.19812C6.0738 7.37726 5.95458 7.42664 5.86667 7.51455C5.77876 7.60246 5.72937 7.72169 5.72937 7.84601V11.7523H3.75C3.29431 11.7528 2.85743 11.934 2.53521 12.2562C2.21299 12.5784 2.03175 13.0153 2.03125 13.471V14.721C2.03125 14.8453 2.08064 14.9646 2.16854 15.0525C2.25645 15.1404 2.37568 15.1898 2.5 15.1898C2.62432 15.1898 2.74355 15.1404 2.83146 15.0525C2.91936 14.9646 2.96875 14.8453 2.96875 14.721V13.471C2.96875 13.0398 3.31875 12.6898 3.75 12.6898H13.9587C14.39 12.6898 14.74 13.0398 14.74 13.471V23.356C14.3294 23.6146 13.9804 23.9601 13.7176 24.368C13.4548 24.7759 13.2845 25.2365 13.2188 25.7173H12.5C12.3757 25.7173 12.2565 25.7666 12.1685 25.8546C12.0806 25.9425 12.0312 26.0617 12.0312 26.186V27.8354H11.1038C10.9794 27.8354 10.8602 27.8848 10.7723 27.9727C10.6844 28.0606 10.635 28.1798 10.635 28.3041V33.6273H2.96875V17.0648H10.635V26.4291C10.635 26.5535 10.6844 26.6727 10.7723 26.7606C10.8602 26.8485 10.9794 26.8979 11.1038 26.8979C11.2281 26.8979 11.3473 26.8485 11.4352 26.7606C11.5231 26.6727 11.5725 26.5535 11.5725 26.4291V16.596C11.5725 16.4717 11.5231 16.3525 11.4352 16.2646C11.3473 16.1766 11.2281 16.1273 11.1038 16.1273H2.5C2.37568 16.1273 2.25645 16.1766 2.16854 16.2646C2.08064 16.3525 2.03125 16.4717 2.03125 16.596V36.2835C2.03208 36.9877 2.3122 37.6629 2.81016 38.1608C3.30813 38.6588 3.98327 38.9389 4.6875 38.9398H27.9588C28.7338 38.9398 29.365 38.3085 29.365 37.5335V34.2798H34.4444C34.5687 34.2798 34.6879 34.3291 34.7758 34.4171C34.8637 34.505 34.9131 34.6242 34.9131 34.7485V37.5335C34.9131 37.6578 34.8637 37.7771 34.7758 37.865C34.6879 37.9529 34.5687 38.0023 34.4444 38.0023H30.7713C30.6469 38.0023 30.5277 38.0516 30.4398 38.1396C30.3519 38.2275 30.3025 38.3467 30.3025 38.471C30.3025 38.5953 30.3519 38.7146 30.4398 38.8025C30.5277 38.8904 30.6469 38.9398 30.7713 38.9398H34.4444C35.2194 38.9398 35.8506 38.3085 35.8506 37.5335V34.7485C35.8506 34.0591 35.3506 33.486 34.6944 33.3673V32.5854H35.3812ZM6.6675 3.93976H15.1562V4.69663H6.66687L6.6675 3.93976ZM7.605 5.63413H10.105V7.37726H7.605V5.63413ZM6.6675 8.31476H11.0425V11.7523H6.6675V8.31476ZM37.0325 8.86226L37.0338 10.0435H29.9844C29.8601 10.0435 29.7408 10.0929 29.6529 10.1808C29.565 10.2687 29.5156 10.3879 29.5156 10.5123C29.5156 10.6366 29.565 10.7558 29.6529 10.8437C29.7408 10.9316 29.8601 10.981 29.9844 10.981H36.9831L34.9562 31.6479H29.3644V28.3041C29.3644 28.1798 29.315 28.0606 29.2271 27.9727C29.1392 27.8848 29.0199 27.8354 28.8956 27.8354H27.9688V26.1854C27.9676 26.0803 27.9308 25.9787 27.8642 25.8973C27.7976 25.816 27.7053 25.7598 27.6025 25.7379L26.1531 10.981H28.1994C28.3237 10.981 28.4429 10.9316 28.5308 10.8437C28.6187 10.7558 28.6681 10.6366 28.6681 10.5123C28.6681 10.3879 28.6187 10.2687 28.5308 10.1808C28.4429 10.0929 28.3237 10.0435 28.1994 10.0435H26.1063V8.86226H37.0325ZM12.9688 26.6548H27.0312V27.8354H12.9688V26.6548ZM11.5725 30.976H23.9062V35.7991H11.5725V30.976ZM2.96875 36.2835V34.5648H10.635V37.5335C10.635 37.6985 10.6687 37.8548 10.7212 38.0023H4.6875C4.23181 38.0018 3.79493 37.8205 3.47271 37.4983C3.15049 37.1761 2.96925 36.7392 2.96875 36.2835ZM28.4275 37.5335C28.4275 37.6578 28.3781 37.7771 28.2902 37.865C28.2023 37.9529 28.0831 38.0023 27.9588 38.0023H12.0413C11.9169 38.0023 11.7977 37.9529 11.7098 37.865C11.6219 37.7771 11.5725 37.6578 11.5725 37.5335V36.7366H24.375C24.4993 36.7366 24.6185 36.6872 24.7065 36.5993C24.7944 36.5114 24.8438 36.3922 24.8438 36.2679V30.5073C24.8438 30.3829 24.7944 30.2637 24.7065 30.1758C24.6185 30.0879 24.4993 30.0385 24.375 30.0385H11.5725V28.7729H28.4275V37.5335ZM33.7569 33.3423H29.365V32.5854H33.7569V33.3423Z"
        fill="#27AE60" />
</svg>
    