<svg width="200" height="200" viewBox="0 0 200 200" fill="none" xmlns="http://www.w3.org/2000/svg">
    <path fill-rule="evenodd" clip-rule="evenodd"
        d="M100 68.5986L167.092 94.6861V172.156L100 198.244L32.9087 172.156V94.6861L100 68.5986Z"
        fill="#FF9A4A" />
    <path fill-rule="evenodd" clip-rule="evenodd"
        d="M100 68.5986L167.092 94.6861V172.156L100 198.244V68.5986Z" fill="#E58233" />
    <path fill-rule="evenodd" clip-rule="evenodd"
        d="M100 120.692L84.7406 147.122L17.5781 121.008L32.8375 94.5771L100 120.692ZM100 120.692L115.259 147.122L182.422 121.008L167.163 94.5771L100 120.692Z"
        fill="#FF8E34" />
    <path fill-rule="evenodd" clip-rule="evenodd"
        d="M166.987 94.6447L99.9999 68.5986L33.0132 94.6447L99.9999 120.692L166.987 94.6447Z"
        fill="#E58233" />
    <path fill-rule="evenodd" clip-rule="evenodd"
        d="M166.987 94.6447L100 68.5986V120.692L166.987 94.6447Z" fill="#CA6C22" />
    <path fill-rule="evenodd" clip-rule="evenodd"
        d="M99.9941 103.061C118.97 103.061 134.447 87.5836 134.447 68.607C134.447 49.6313 118.97 34.1543 99.9941 34.1543C81.018 34.1543 65.541 49.6313 65.541 68.607C65.541 87.5836 81.018 103.061 99.9941 103.061Z"
        fill="#27AE60" />
    <path fill-rule="evenodd" clip-rule="evenodd"
        d="M113.04 52.8954C114.99 50.945 118.152 50.945 120.102 52.8954C122.053 54.8454 122.053 58.0079 120.102 59.9579L95.7415 84.3192C93.5329 86.5278 89.8836 86.1806 88.111 83.6419L77.8622 70.7438C76.1485 68.5888 76.5067 65.4524 78.6618 63.7396C80.8172 62.0259 83.9528 62.3841 85.6665 64.5392L92.6313 73.304L113.04 52.8954Z"
        fill="#EFF4F7" />
    <path fill-rule="evenodd" clip-rule="evenodd"
        d="M162.898 66.3049C163.311 66.3003 163.721 66.3777 164.104 66.5326C164.487 66.6876 164.836 66.917 165.13 67.2077C165.424 67.4983 165.657 67.8443 165.816 68.2257C165.976 68.6072 166.058 69.0164 166.058 69.4297C166.058 69.843 165.976 70.2522 165.816 70.6336C165.657 71.0151 165.424 71.3611 165.13 71.6517C164.836 71.9423 164.487 72.1718 164.104 72.3267C163.721 72.4817 163.311 72.5591 162.898 72.5545H148.261C147.848 72.5591 147.438 72.4817 147.055 72.3267C146.672 72.1718 146.323 71.9423 146.029 71.6517C145.735 71.3611 145.502 71.0151 145.343 70.6336C145.183 70.2522 145.101 69.843 145.101 69.4297C145.101 69.0164 145.183 68.6072 145.343 68.2257C145.502 67.8443 145.735 67.4983 146.029 67.2077C146.323 66.917 146.672 66.6876 147.055 66.5326C147.438 66.3777 147.848 66.3003 148.261 66.3049H162.898ZM96.8687 4.88184C96.8687 4.05303 97.198 3.25818 97.784 2.67213C98.3701 2.08608 99.1649 1.75684 99.9937 1.75684C100.823 1.75684 101.617 2.08608 102.203 2.67213C102.789 3.25818 103.119 4.05303 103.119 4.88184V19.5182C103.119 20.347 102.789 21.1418 102.203 21.7279C101.617 22.3139 100.823 22.6432 99.9937 22.6432C99.1649 22.6432 98.3701 22.3139 97.784 21.7279C97.198 21.1418 96.8687 20.347 96.8687 19.5182V4.88184ZM65.3238 14.5592C65.1202 14.2049 64.9884 13.814 64.9359 13.4088C64.8834 13.0035 64.9112 12.5919 65.0178 12.1974C65.1243 11.803 65.3076 11.4334 65.557 11.1097C65.8064 10.786 66.1172 10.5147 66.4715 10.3111C66.8257 10.1075 67.2167 9.97572 67.6219 9.9232C68.0271 9.87069 68.4387 9.89852 68.8332 10.0051C69.2277 10.1117 69.5973 10.2949 69.9209 10.5443C70.2446 10.7937 70.516 11.1045 70.7195 11.4588L78.0375 24.1338C78.4486 24.8493 78.5587 25.6988 78.3434 26.4955C78.1282 27.2922 77.6053 27.9707 76.8898 28.3818C76.1743 28.793 75.3248 28.903 74.5281 28.6878C73.7314 28.4726 73.0529 27.9497 72.6418 27.2342L65.3238 14.5592ZM42.8328 38.7303C42.4785 38.5251 42.1681 38.2522 41.9193 37.927C41.6705 37.6019 41.4882 37.2309 41.3828 36.8353C41.2774 36.4397 41.2509 36.0272 41.3049 35.6214C41.359 35.2156 41.4924 34.8244 41.6976 34.4701C41.9028 34.1159 42.1757 33.8055 42.5008 33.5568C42.8259 33.308 43.1969 33.1257 43.5924 33.0203C43.988 32.9149 44.4004 32.8884 44.8062 32.9424C45.212 32.9964 45.6032 33.1298 45.9574 33.335L58.6324 40.6529C58.9899 40.8565 59.3036 41.1287 59.5553 41.454C59.8071 41.7793 59.992 42.1512 60.0994 42.5483C60.2068 42.9454 60.2346 43.3598 60.1811 43.7677C60.1276 44.1756 59.9939 44.5688 59.7877 44.9248C59.5815 45.2807 59.3069 45.5924 58.9798 45.8417C58.6526 46.0911 58.2793 46.2732 57.8815 46.3776C57.4836 46.4821 57.069 46.5067 56.6615 46.4502C56.2541 46.3937 55.8618 46.2571 55.5074 46.0482L42.8328 38.7303ZM35.4461 70.91C35.0328 70.9146 34.6227 70.8372 34.2395 70.6822C33.8563 70.5273 33.5077 70.2978 33.2138 70.0072C32.9199 69.7166 32.6866 69.3705 32.5274 68.9891C32.3681 68.6077 32.2861 68.1985 32.2861 67.7852C32.2861 67.3718 32.3681 66.9626 32.5274 66.5812C32.6866 66.1998 32.9199 65.8538 33.2138 65.5631C33.5077 65.2725 33.8563 65.0431 34.2395 64.8881C34.6227 64.7332 35.0328 64.6557 35.4461 64.6604H50.0824C50.4957 64.6557 50.9058 64.7332 51.289 64.8881C51.6721 65.0431 52.0208 65.2725 52.3147 65.5631C52.6085 65.8538 52.8419 66.1998 53.0011 66.5812C53.1603 66.9626 53.2423 67.3718 53.2423 67.7852C53.2423 68.1985 53.1603 68.6077 53.0011 68.9891C52.8419 69.3705 52.6085 69.7166 52.3147 70.0072C52.0208 70.2978 51.6721 70.5273 51.289 70.6822C50.9058 70.8372 50.4957 70.9146 50.0824 70.91H35.4461ZM129.049 12.2807C129.252 11.9264 129.524 11.6157 129.847 11.3663C130.171 11.1169 130.541 10.9336 130.935 10.8271C131.33 10.7205 131.741 10.6927 132.147 10.7453C132.552 10.7978 132.943 10.9296 133.297 11.1332C133.651 11.3368 133.962 11.6082 134.211 11.9319C134.461 12.2556 134.644 12.6252 134.751 13.0197C134.857 13.4142 134.885 13.8258 134.832 14.231C134.78 14.6362 134.648 15.0272 134.445 15.3814L127.127 28.0564C126.715 28.7718 126.037 29.2946 125.24 29.5098C124.444 29.7251 123.594 29.6151 122.878 29.2041C122.163 28.7927 121.64 28.1141 121.425 27.3175C121.21 26.5208 121.32 25.6713 121.731 24.9557L129.049 12.2807ZM153.208 34.7592C153.924 34.3448 154.775 34.2316 155.574 34.4445C156.373 34.6573 157.054 35.1789 157.469 35.8943C157.883 36.6099 157.996 37.4606 157.783 38.2596C157.57 39.0585 157.049 39.7401 156.333 40.1545L143.658 47.4725C142.943 47.8796 142.096 47.9875 141.302 47.7726C140.508 47.5578 139.83 47.0377 139.418 46.3257C139.006 45.6137 138.891 44.7676 139.1 43.9717C139.309 43.1758 139.824 42.4948 140.533 42.0772L153.208 34.7592Z"
        fill="#27AE60" />
</svg>
    