<svg width="32" height="32" viewBox="0 0 32 32" fill="none" xmlns="http://www.w3.org/2000/svg">
    <g clip-path="url(#clip0_506_18978)">
        <path
            d="M25.6652 10.4505C28.551 10.4505 30.8904 8.11104 30.8904 5.22523C30.8904 2.33941 28.551 0 25.6652 0C22.7794 0 20.4399 2.33941 20.4399 5.22523C20.4399 8.11104 22.7794 10.4505 25.6652 10.4505Z"
            fill="#FCD249" />
        <path
            d="M22.6819 6.94588C21.3909 4.70977 21.9417 1.91709 23.8619 0.320312C23.5818 0.423218 23.3109 0.549804 23.0523 0.698695C20.5533 2.14154 19.697 5.3371 21.1398 7.83627C22.5827 10.3353 25.7783 11.1917 28.2774 9.74875C28.5356 9.5992 28.7807 9.42795 29.0099 9.23686C26.6668 10.1013 23.9729 9.18199 22.6819 6.94588Z"
            fill="#F9B938" />
        <path
            d="M25.6653 8.66951C27.5675 8.66951 29.1095 7.12752 29.1095 5.22538C29.1095 3.32324 27.5675 1.78125 25.6653 1.78125C23.7632 1.78125 22.2212 3.32324 22.2212 5.22538C22.2212 7.12752 23.7632 8.66951 25.6653 8.66951Z"
            fill="#F9B938" />
        <path
            d="M24.0757 6.14183C23.2632 4.73455 23.5575 2.99283 24.6873 1.92188C24.4273 1.99881 24.1773 2.10612 23.9425 2.24157C22.295 3.19271 21.7306 5.29925 22.6818 6.94666C23.6329 8.59413 25.7394 9.15852 27.3869 8.20737C27.6216 8.07171 27.8395 7.90887 28.0361 7.72224C26.5437 8.16525 24.8882 7.54917 24.0757 6.14183Z"
            fill="#E59C1C" />
        <path
            d="M20.6549 10.4505C23.5407 10.4505 25.8801 8.11104 25.8801 5.22523C25.8801 2.33941 23.5407 0 20.6549 0C17.7691 0 15.4297 2.33941 15.4297 5.22523C15.4297 8.11104 17.7691 10.4505 20.6549 10.4505Z"
            fill="#FCD249" />
        <path
            d="M17.6722 6.94588C16.3812 4.70977 16.932 1.91709 18.8521 0.320312C18.572 0.423218 18.3012 0.549804 18.0426 0.698695C15.5435 2.14154 14.6872 5.3371 16.1301 7.83627C17.5729 10.3353 20.7685 11.1917 23.2676 9.74875C23.5258 9.5992 23.7709 9.42795 24.0001 9.23686C21.6571 10.1013 18.9632 9.18199 17.6722 6.94588Z"
            fill="#F9B938" />
        <path
            d="M20.6551 8.66951C22.5572 8.66951 24.0992 7.12752 24.0992 5.22538C24.0992 3.32324 22.5572 1.78125 20.6551 1.78125C18.7529 1.78125 17.2109 3.32324 17.2109 5.22538C17.2109 7.12752 18.7529 8.66951 20.6551 8.66951Z"
            fill="#F9B938" />
        <path
            d="M19.066 6.14183C18.2535 4.73455 18.5478 2.99283 19.6775 1.92188C19.4175 1.99881 19.1676 2.10612 18.9327 2.24157C17.2853 3.19271 16.7209 5.29925 17.672 6.94666C18.6232 8.59407 20.7297 9.15852 22.3771 8.20737C22.6118 8.07171 22.8297 7.90887 23.0264 7.72224C21.534 8.16525 19.8786 7.54917 19.066 6.14183Z"
            fill="#E59C1C" />
        <path
            d="M21.0924 8.7585L12.6751 0.276958C12.3111 -0.0871112 11.7153 -0.0871112 11.3512 0.276958L2.93408 8.7585H21.0924Z"
            fill="#91CE91" />
        <path
            d="M12.6751 0.276958C12.3111 -0.0871112 11.7153 -0.0871112 11.3512 0.276958L2.93408 8.7585H5.44513L13.2687 0.875033L12.6751 0.276958Z"
            fill="#5EAA5E" />
        <path
            d="M11.3513 2.79263L5.45215 8.75625H18.5745L12.6753 2.79263C12.3112 2.4285 11.7154 2.4285 11.3513 2.79263Z"
            fill="#5EAA5E" />
        <path
            d="M12.6753 2.79258C12.3112 2.42851 11.7154 2.42851 11.3513 2.79258L5.45215 8.7562H7.12618L12.8504 2.96952L12.6753 2.79258Z"
            fill="#4D964D" />
        <path
            d="M31.9987 24.6075V29.0819C31.9987 30.6903 30.6902 31.9988 29.0818 31.9988H2.91785C1.30944 31.9988 0.000976562 30.6903 0.000976562 29.0819V11.6082C0.000976562 9.99987 1.30944 8.69141 2.91785 8.69141H29.0819C30.6903 8.69141 31.9987 9.99987 31.9987 11.6082V16.0656"
            fill="#DD9A5E" />
        <path
            d="M1.80376 29.082V11.6082C1.80376 9.99987 3.11223 8.69141 4.72063 8.69141H2.91785C1.30944 8.69141 0.000976562 9.99987 0.000976562 11.6082V29.082C0.000976562 30.6904 1.30944 31.9989 2.91785 31.9989H4.72063C3.11223 31.9989 1.80376 30.6903 1.80376 29.082ZM31.9987 16.2244H24.5575C22.291 16.2244 20.4368 18.0787 20.4368 20.3451C20.4368 22.6116 22.291 24.4658 24.5575 24.4658H31.9987V16.2244Z"
            fill="#D38D54" />
        <path
            d="M20.5345 19.4609C20.4699 19.7516 20.4372 20.0484 20.437 20.3461C20.437 22.6125 22.2913 24.4667 24.5577 24.4667H31.9989V22.6964H24.5577C22.5951 22.6965 20.9424 21.3055 20.5345 19.4609Z"
            fill="#C17B48" />
        <path
            d="M24.671 22.6438C25.9512 22.6438 26.989 21.606 26.989 20.3258C26.989 19.0456 25.9512 18.0078 24.671 18.0078C23.3908 18.0078 22.353 19.0456 22.353 20.3258C22.353 21.606 23.3908 22.6438 24.671 22.6438Z"
            fill="#DADADA" />
        <path
            d="M26.0785 21.4058C24.842 21.0744 24.1082 19.8034 24.4395 18.5669C24.4932 18.3664 24.572 18.1794 24.671 18.0078C23.647 18.0073 22.7097 18.6899 22.4321 19.7259C22.1007 20.9624 22.8346 22.2334 24.0711 22.5647C25.1071 22.8423 26.167 22.3719 26.6785 21.4849C26.4759 21.4847 26.2742 21.4581 26.0785 21.4058Z"
            fill="#C0C0C0" />
        <path
            d="M2.35891 30.2031C2.37685 29.937 2.60685 29.7368 2.87317 29.7538C2.88567 29.7547 2.89836 29.7551 2.91098 29.7552C3.03904 29.7567 3.16125 29.809 3.25075 29.9006C3.34025 29.9922 3.38971 30.1156 3.38824 30.2437C3.38049 30.9145 2.31503 30.8538 2.35891 30.2031ZM28.5695 30.721H28.5047C28.3766 30.721 28.2538 30.6701 28.1632 30.5796C28.0727 30.489 28.0218 30.3662 28.0218 30.2381C28.0218 30.1101 28.0727 29.9872 28.1632 29.8967C28.2538 29.8061 28.3766 29.7552 28.5047 29.7552H28.5695C28.6976 29.7552 28.8204 29.8061 28.9109 29.8967C29.0015 29.9872 29.0524 30.1101 29.0524 30.2381C29.0524 30.3662 29.0015 30.489 28.9109 30.5796C28.8204 30.6701 28.6976 30.721 28.5695 30.721ZM26.2363 30.721H26.1715C26.0434 30.721 25.9206 30.6701 25.83 30.5796C25.7395 30.489 25.6886 30.3662 25.6886 30.2381C25.6886 30.1101 25.7395 29.9872 25.83 29.8967C25.9206 29.8061 26.0434 29.7552 26.1715 29.7552H26.2363C26.3644 29.7552 26.4872 29.8061 26.5778 29.8967C26.6683 29.9872 26.7192 30.1101 26.7192 30.2381C26.7192 30.3662 26.6683 30.489 26.5778 30.5796C26.4872 30.6701 26.3644 30.721 26.2363 30.721ZM23.9033 30.721H23.8385C23.7104 30.721 23.5876 30.6701 23.4971 30.5796C23.4065 30.489 23.3556 30.3662 23.3556 30.2381C23.3556 30.1101 23.4065 29.9872 23.4971 29.8967C23.5876 29.8061 23.7104 29.7552 23.8385 29.7552H23.9033C24.0314 29.7552 24.1542 29.8061 24.2448 29.8967C24.3353 29.9872 24.3862 30.1101 24.3862 30.2381C24.3862 30.3662 24.3353 30.489 24.2448 30.5796C24.1542 30.6701 24.0314 30.721 23.9033 30.721ZM21.5702 30.721H21.5053C21.3773 30.721 21.2545 30.6701 21.1639 30.5796C21.0733 30.489 21.0225 30.3662 21.0225 30.2381C21.0225 30.1101 21.0733 29.9872 21.1639 29.8967C21.2545 29.8061 21.3773 29.7552 21.5053 29.7552H21.5702C21.6982 29.7552 21.8211 29.8061 21.9116 29.8967C22.0022 29.9872 22.053 30.1101 22.053 30.2381C22.053 30.3662 22.0022 30.489 21.9116 30.5796C21.8211 30.6701 21.6982 30.721 21.5702 30.721ZM19.2371 30.721H19.1723C19.0442 30.721 18.9214 30.6701 18.8308 30.5796C18.7403 30.489 18.6894 30.3662 18.6894 30.2381C18.6894 30.1101 18.7403 29.9872 18.8308 29.8967C18.9214 29.8061 19.0442 29.7552 19.1723 29.7552H19.2371C19.3652 29.7552 19.488 29.8061 19.5786 29.8967C19.6691 29.9872 19.72 30.1101 19.72 30.2381C19.72 30.3662 19.6691 30.489 19.5786 30.5796C19.488 30.6701 19.3652 30.721 19.2371 30.721ZM16.904 30.721H16.8392C16.7111 30.721 16.5883 30.6701 16.4977 30.5796C16.4072 30.489 16.3563 30.3662 16.3563 30.2381C16.3563 30.1101 16.4072 29.9872 16.4977 29.8967C16.5883 29.8061 16.7111 29.7552 16.8392 29.7552H16.904C17.0321 29.7552 17.1549 29.8061 17.2455 29.8967C17.336 29.9872 17.3869 30.1101 17.3869 30.2381C17.3869 30.3662 17.336 30.489 17.2455 30.5796C17.1549 30.6701 17.0321 30.721 16.904 30.721ZM14.5709 30.721H14.5061C14.378 30.721 14.2552 30.6701 14.1646 30.5796C14.0741 30.489 14.0232 30.3662 14.0232 30.2381C14.0232 30.1101 14.0741 29.9872 14.1646 29.8967C14.2552 29.8061 14.378 29.7552 14.5061 29.7552H14.5709C14.699 29.7552 14.8218 29.8061 14.9123 29.8967C15.0029 29.9872 15.0538 30.1101 15.0538 30.2381C15.0538 30.3662 15.0029 30.489 14.9123 30.5796C14.8218 30.6701 14.699 30.721 14.5709 30.721ZM12.2378 30.721H12.173C12.0449 30.721 11.9221 30.6701 11.8315 30.5796C11.741 30.489 11.6901 30.3662 11.6901 30.2381C11.6901 30.1101 11.741 29.9872 11.8315 29.8967C11.9221 29.8061 12.0449 29.7552 12.173 29.7552H12.2378C12.3659 29.7552 12.4887 29.8061 12.5792 29.8967C12.6698 29.9872 12.7207 30.1101 12.7207 30.2381C12.7207 30.3662 12.6698 30.489 12.5792 30.5796C12.4887 30.6701 12.3659 30.721 12.2378 30.721ZM9.90468 30.721H9.83987C9.7118 30.721 9.58897 30.6701 9.49841 30.5796C9.40786 30.489 9.35698 30.3662 9.35698 30.2381C9.35698 29.5942 10.3875 29.5922 10.3875 30.2381C10.3875 30.3015 10.375 30.3643 10.3508 30.4229C10.3265 30.4815 10.291 30.5348 10.2461 30.5796C10.2013 30.6244 10.1481 30.66 10.0895 30.6843C10.0309 30.7085 9.96809 30.721 9.90468 30.721ZM7.57163 30.721H7.50682C7.37875 30.721 7.25593 30.6701 7.16537 30.5796C7.07481 30.489 7.02394 30.3662 7.02394 30.2381C7.02394 29.5942 8.05452 29.5922 8.05452 30.2381C8.0545 30.3662 8.00362 30.489 7.91307 30.5796C7.82251 30.6701 7.6997 30.721 7.57163 30.721ZM5.23846 30.721H5.17365C5.04558 30.721 4.92276 30.6701 4.8322 30.5796C4.74164 30.489 4.69077 30.3662 4.69077 30.2381C4.69077 30.1101 4.74164 29.9872 4.8322 29.8967C4.92276 29.8061 5.04558 29.7552 5.17365 29.7552H5.23846C5.36653 29.7552 5.48936 29.8061 5.57991 29.8967C5.67047 29.9872 5.72135 30.1101 5.72135 30.2381C5.72135 30.3662 5.67047 30.489 5.57991 30.5796C5.48936 30.6701 5.36653 30.721 5.23846 30.721ZM30.2348 29.6239C30.1694 29.6239 30.1046 29.6107 30.0445 29.585C29.9843 29.5593 29.93 29.5216 29.8849 29.4742C29.8398 29.4269 29.8047 29.3709 29.7819 29.3096C29.759 29.2483 29.7489 29.183 29.7521 29.1177C29.7526 29.1065 29.7529 29.0954 29.7529 29.0841V29.0762C29.7529 28.9482 29.8038 28.8253 29.8943 28.7348C29.9849 28.6442 30.1077 28.5933 30.2358 28.5933C30.3638 28.5933 30.4867 28.6442 30.5772 28.7348C30.6678 28.8253 30.7187 28.9482 30.7187 29.0762V29.0841C30.7187 29.111 30.718 29.1377 30.7167 29.1644C30.7107 29.2882 30.6573 29.4049 30.5676 29.4905C30.4779 29.576 30.3587 29.6238 30.2348 29.6239ZM1.76365 29.0345C1.63558 29.0345 1.51275 28.9837 1.4222 28.8931C1.33164 28.8026 1.28076 28.6797 1.28076 28.5517V28.4869C1.28076 28.3588 1.33164 28.236 1.4222 28.1455C1.51275 28.0549 1.63558 28.004 1.76365 28.004C1.89172 28.004 2.01454 28.0549 2.1051 28.1455C2.19566 28.236 2.24653 28.3588 2.24653 28.4869V28.5517C2.24655 28.6151 2.23407 28.6779 2.20981 28.7365C2.18555 28.7951 2.14998 28.8483 2.10513 28.8931C2.06029 28.938 2.00705 28.9736 1.94846 28.9978C1.88986 29.0221 1.82706 29.0346 1.76365 29.0345ZM30.2358 27.2909C30.1077 27.2909 29.9849 27.24 29.8943 27.1495C29.8038 27.0589 29.7529 26.9361 29.7529 26.808V26.7432C29.7529 26.6151 29.8038 26.4923 29.8943 26.4017C29.9849 26.3112 30.1077 26.2603 30.2358 26.2603C30.3638 26.2603 30.4867 26.3112 30.5772 26.4017C30.6678 26.4923 30.7187 26.6151 30.7187 26.7432V26.808C30.7186 26.9361 30.6678 27.0589 30.5772 27.1494C30.4866 27.24 30.3638 27.2909 30.2358 27.2909ZM1.76365 26.7015C1.63558 26.7015 1.51275 26.6506 1.4222 26.5601C1.33164 26.4695 1.28076 26.3467 1.28076 26.2186V26.1539C1.28076 26.0258 1.33164 25.903 1.4222 25.8124C1.51275 25.7219 1.63558 25.671 1.76365 25.671C1.89172 25.671 2.01454 25.7219 2.1051 25.8124C2.19566 25.903 2.24653 26.0258 2.24653 26.1539V26.2186C2.24654 26.282 2.23405 26.3448 2.20979 26.4034C2.18553 26.462 2.14996 26.5152 2.10512 26.5601C2.06027 26.6049 2.00704 26.6405 1.94845 26.6648C1.88986 26.689 1.82706 26.7015 1.76365 26.7015ZM1.76365 24.3683C1.63558 24.3683 1.51275 24.3175 1.4222 24.2269C1.33164 24.1363 1.28076 24.0135 1.28076 23.8854V23.8207C1.28076 23.6926 1.33164 23.5698 1.4222 23.4792C1.51275 23.3887 1.63558 23.3378 1.76365 23.3378C1.89172 23.3378 2.01454 23.3887 2.1051 23.4792C2.19566 23.5698 2.24653 23.6926 2.24653 23.8207V23.8854C2.24655 23.9489 2.23407 24.0117 2.20981 24.0703C2.18555 24.1288 2.14998 24.1821 2.10513 24.2269C2.06029 24.2718 2.00705 24.3073 1.94846 24.3316C1.88986 24.3559 1.82706 24.3683 1.76365 24.3683ZM1.76365 22.0353C1.63558 22.0353 1.51275 21.9844 1.4222 21.8938C1.33164 21.8033 1.28076 21.6805 1.28076 21.5524V21.4876C1.28075 21.4242 1.29324 21.3614 1.3175 21.3028C1.34177 21.2443 1.37734 21.191 1.42218 21.1462C1.46702 21.1013 1.52025 21.0658 1.57884 21.0415C1.63743 21.0172 1.70023 21.0048 1.76365 21.0048C2.40903 21.0047 2.40828 22.0353 1.76365 22.0353ZM1.76365 19.7022C1.63558 19.7022 1.51275 19.6514 1.4222 19.5608C1.33164 19.4702 1.28076 19.3474 1.28076 19.2194V19.1545C1.28076 19.0265 1.33164 18.9036 1.4222 18.8131C1.51275 18.7225 1.63558 18.6717 1.76365 18.6717C1.89172 18.6717 2.01454 18.7225 2.1051 18.8131C2.19566 18.9036 2.24653 19.0265 2.24653 19.1545V19.2194C2.24654 19.2828 2.23405 19.3456 2.20979 19.4042C2.18553 19.4627 2.14996 19.516 2.10512 19.5608C2.06027 19.6057 2.00704 19.6412 1.94845 19.6655C1.88986 19.6898 1.82706 19.7022 1.76365 19.7022ZM1.76365 17.3691C1.63558 17.3691 1.51275 17.3182 1.4222 17.2276C1.33164 17.1371 1.28076 17.0143 1.28076 16.8862V16.8214C1.28076 16.6933 1.33164 16.5705 1.4222 16.4799C1.51275 16.3894 1.63558 16.3385 1.76365 16.3385C1.89172 16.3385 2.01454 16.3894 2.1051 16.4799C2.19566 16.5705 2.24653 16.6933 2.24653 16.8214V16.8862C2.24655 16.9496 2.23407 17.0124 2.20981 17.071C2.18555 17.1296 2.14998 17.1828 2.10513 17.2277C2.06029 17.2725 2.00705 17.3081 1.94846 17.3323C1.88986 17.3566 1.82706 17.3691 1.76365 17.3691ZM1.76365 15.036C1.63558 15.036 1.51275 14.9851 1.4222 14.8946C1.33164 14.804 1.28076 14.6812 1.28076 14.5531V14.4883C1.28076 14.3603 1.33164 14.2374 1.4222 14.1469C1.51275 14.0563 1.63558 14.0054 1.76365 14.0054C1.89172 14.0054 2.01454 14.0563 2.1051 14.1469C2.19566 14.2374 2.24653 14.3603 2.24653 14.4883V14.5531C2.24654 14.6166 2.23405 14.6793 2.20979 14.7379C2.18553 14.7965 2.14996 14.8498 2.10512 14.8946C2.06027 14.9394 2.00704 14.975 1.94845 14.9993C1.88986 15.0235 1.82706 15.036 1.76365 15.036ZM30.2358 14.4219C30.1077 14.4219 29.9849 14.371 29.8943 14.2805C29.8038 14.1899 29.7529 14.0671 29.7529 13.939V13.8742C29.7529 13.7461 29.8038 13.6233 29.8943 13.5327C29.9849 13.4422 30.1077 13.3913 30.2358 13.3913C30.3638 13.3913 30.4867 13.4422 30.5772 13.5327C30.6678 13.6233 30.7187 13.7461 30.7187 13.8742V13.939C30.7186 14.0671 30.6678 14.1899 30.5772 14.2804C30.4866 14.371 30.3638 14.4219 30.2358 14.4219ZM1.76365 12.7029C1.63558 12.7029 1.51275 12.652 1.4222 12.5615C1.33164 12.4709 1.28076 12.3481 1.28076 12.22V12.1552C1.28076 12.0271 1.33164 11.9043 1.4222 11.8138C1.51275 11.7232 1.63558 11.6723 1.76365 11.6723C1.89172 11.6723 2.01454 11.7232 2.1051 11.8138C2.19566 11.9043 2.24653 12.0271 2.24653 12.1552V12.22C2.24655 12.2834 2.23407 12.3462 2.20981 12.4048C2.18555 12.4634 2.14998 12.5167 2.10513 12.5615C2.06029 12.6064 2.00705 12.6419 1.94846 12.6662C1.88986 12.6905 1.82706 12.7029 1.76365 12.7029ZM29.7528 11.608C29.7527 11.5951 29.7523 11.5822 29.7516 11.5694C29.7139 10.9274 30.7154 10.8391 30.7186 11.6038C30.7189 11.6672 30.7067 11.73 30.6826 11.7887C30.6586 11.8474 30.6233 11.9008 30.5787 11.9458C30.534 11.9909 30.4809 12.0266 30.4225 12.0512C30.364 12.0757 30.3012 12.0884 30.2378 12.0887C30.1744 12.089 30.1115 12.0768 30.0528 12.0528C29.9941 12.0288 29.9407 11.9935 29.8957 11.9489C29.8506 11.9042 29.8148 11.8511 29.7903 11.7926C29.7658 11.7341 29.7531 11.6714 29.7528 11.608ZM2.82785 10.9428C2.21447 10.9428 2.13809 9.98886 2.88329 9.97386C3.50437 9.95823 3.59093 10.9428 2.82785 10.9428ZM28.5571 10.9393H28.4923C28.3642 10.9393 28.2414 10.8884 28.1508 10.7978C28.0603 10.7073 28.0094 10.5844 28.0094 10.4564C28.0094 10.3283 28.0603 10.2055 28.1508 10.1149C28.2414 10.0244 28.3642 9.97348 28.4923 9.97348H28.5571C28.6852 9.97348 28.808 10.0244 28.8986 10.1149C28.9891 10.2055 29.04 10.3283 29.04 10.4564C29.04 10.5844 28.9891 10.7073 28.8986 10.7978C28.808 10.8884 28.6852 10.9393 28.5571 10.9393ZM26.224 10.9393H26.1592C26.0311 10.9393 25.9083 10.8884 25.8177 10.7978C25.7272 10.7073 25.6763 10.5844 25.6763 10.4564C25.6763 10.3283 25.7272 10.2055 25.8177 10.1149C25.9083 10.0244 26.0311 9.97348 26.1592 9.97348H26.224C26.3521 9.97348 26.4749 10.0244 26.5655 10.1149C26.656 10.2055 26.7069 10.3283 26.7069 10.4564C26.7069 10.5844 26.656 10.7073 26.5655 10.7978C26.4749 10.8884 26.3521 10.9393 26.224 10.9393ZM23.8909 10.9393H23.8261C23.698 10.9393 23.5752 10.8884 23.4846 10.7978C23.3941 10.7073 23.3432 10.5844 23.3432 10.4564C23.3432 10.3283 23.3941 10.2055 23.4846 10.1149C23.5752 10.0244 23.698 9.97348 23.8261 9.97348H23.8909C24.019 9.97348 24.1418 10.0244 24.2323 10.1149C24.3229 10.2055 24.3738 10.3283 24.3738 10.4564C24.3738 10.5844 24.3229 10.7073 24.2323 10.7978C24.1418 10.8884 24.019 10.9393 23.8909 10.9393ZM21.5578 10.9393H21.493C21.3649 10.9393 21.2421 10.8884 21.1515 10.7978C21.061 10.7073 21.0101 10.5844 21.0101 10.4564C21.0101 10.3283 21.061 10.2055 21.1515 10.1149C21.2421 10.0244 21.3649 9.97348 21.493 9.97348H21.5578C21.6859 9.97348 21.8087 10.0244 21.8992 10.1149C21.9898 10.2055 22.0407 10.3283 22.0407 10.4564C22.0407 10.5844 21.9898 10.7073 21.8992 10.7978C21.8087 10.8884 21.6859 10.9393 21.5578 10.9393ZM19.2247 10.9393H19.1599C19.0319 10.9393 18.909 10.8884 18.8185 10.7978C18.7279 10.7073 18.677 10.5844 18.677 10.4564C18.677 10.3283 18.7279 10.2055 18.8185 10.1149C18.909 10.0244 19.0319 9.97348 19.1599 9.97348H19.2247C19.3528 9.97348 19.4756 10.0244 19.5662 10.1149C19.6567 10.2055 19.7076 10.3283 19.7076 10.4564C19.7076 10.5844 19.6567 10.7073 19.5662 10.7978C19.4756 10.8884 19.3528 10.9393 19.2247 10.9393ZM16.8916 10.9393H16.8268C16.6987 10.9393 16.5759 10.8884 16.4854 10.7978C16.3948 10.7073 16.3439 10.5844 16.3439 10.4564C16.3439 10.3283 16.3948 10.2055 16.4854 10.1149C16.5759 10.0244 16.6987 9.97348 16.8268 9.97348H16.8916C17.0197 9.97348 17.1425 10.0244 17.2331 10.1149C17.3236 10.2055 17.3745 10.3283 17.3745 10.4564C17.3745 10.5844 17.3236 10.7073 17.2331 10.7978C17.1425 10.8884 17.0197 10.9393 16.8916 10.9393ZM14.5586 10.9393H14.4938C14.3657 10.9393 14.2429 10.8884 14.1523 10.7978C14.0618 10.7073 14.0109 10.5844 14.0109 10.4564C14.0109 10.3283 14.0618 10.2055 14.1523 10.1149C14.2429 10.0244 14.3657 9.97348 14.4938 9.97348H14.5586C14.6867 9.97348 14.8095 10.0244 14.9 10.1149C14.9906 10.2055 15.0415 10.3283 15.0415 10.4564C15.0415 10.5844 14.9906 10.7073 14.9 10.7978C14.8095 10.8884 14.6867 10.9393 14.5586 10.9393ZM12.2254 10.9393H12.1606C12.0325 10.9393 11.9097 10.8884 11.8191 10.7978C11.7286 10.7073 11.6777 10.5844 11.6777 10.4564C11.6777 9.81242 12.7083 9.81042 12.7083 10.4564C12.7083 10.5198 12.6958 10.5826 12.6716 10.6412C12.6473 10.6998 12.6117 10.753 12.5669 10.7978C12.522 10.8427 12.4688 10.8782 12.4102 10.9025C12.3516 10.9268 12.2888 10.9393 12.2254 10.9393ZM9.89231 10.9393H9.82749C9.69942 10.9393 9.5766 10.8884 9.48604 10.7978C9.39548 10.7073 9.34461 10.5844 9.34461 10.4564C9.34461 10.3283 9.39548 10.2055 9.48604 10.1149C9.5766 10.0244 9.69942 9.97348 9.82749 9.97348H9.89231C10.0204 9.97348 10.1432 10.0244 10.2338 10.1149C10.3243 10.2055 10.3752 10.3283 10.3752 10.4564C10.3752 10.5844 10.3243 10.7073 10.2338 10.7978C10.1432 10.8884 10.0204 10.9393 9.89231 10.9393ZM7.55926 10.9393H7.49445C7.36638 10.9393 7.24355 10.8884 7.15299 10.7978C7.06244 10.7073 7.01156 10.5844 7.01156 10.4564C7.01156 10.3283 7.06244 10.2055 7.15299 10.1149C7.24355 10.0244 7.36638 9.97348 7.49445 9.97348H7.55926C7.68733 9.97348 7.81015 10.0244 7.90071 10.1149C7.99127 10.2055 8.04214 10.3283 8.04214 10.4564C8.04214 10.5844 7.99127 10.7073 7.90071 10.7978C7.81015 10.8884 7.68733 10.9393 7.55926 10.9393ZM5.22609 10.9393H5.16128C5.03321 10.9393 4.91038 10.8884 4.81982 10.7978C4.72927 10.7073 4.67839 10.5844 4.67839 10.4564C4.67839 10.3283 4.72927 10.2055 4.81982 10.1149C4.91038 10.0244 5.03321 9.97348 5.16128 9.97348H5.22609C5.35416 9.97348 5.47698 10.0244 5.56754 10.1149C5.6581 10.2055 5.70897 10.3283 5.70897 10.4564C5.70897 10.5844 5.6581 10.7073 5.56754 10.7978C5.47698 10.8884 5.35416 10.9393 5.22609 10.9393Z"
            fill="#EAB883" />
    </g>
    <defs>
        <clipPath id="clip0_506_18978">
            <rect width="32" height="32" fill="white" />
        </clipPath>
    </defs>
</svg>
    