<svg width="16" height="20" viewBox="0 0 16 20" fill="none" xmlns="http://www.w3.org/2000/svg">
    <path
        d="M14.9679 15.2366C14.7068 15.9061 14.3976 16.5224 14.0395 17.089C13.5513 17.8614 13.1516 18.396 12.8435 18.6929C12.366 19.1802 11.8544 19.4298 11.3065 19.444C10.9132 19.444 10.4388 19.3198 9.88669 19.0679C9.33274 18.8171 8.82365 18.6929 8.35817 18.6929C7.86998 18.6929 7.3464 18.8171 6.78637 19.0679C6.22549 19.3198 5.77365 19.4511 5.42819 19.4641C4.9028 19.489 4.37911 19.2323 3.85639 18.6929C3.52276 18.37 3.10545 17.8164 2.60554 17.0322C2.06917 16.1947 1.62821 15.2236 1.28274 14.1164C0.912764 12.9206 0.727295 11.7626 0.727295 10.6415C0.727295 9.35724 0.977358 8.24962 1.47823 7.32143C1.87187 6.57588 2.39556 5.98777 3.05099 5.55603C3.70642 5.12429 4.41461 4.90428 5.17727 4.8902C5.59458 4.8902 6.14182 5.03344 6.82187 5.31496C7.5 5.59743 7.93543 5.74067 8.12633 5.74067C8.26906 5.74067 8.75277 5.57318 9.57278 5.23926C10.3482 4.92959 11.0027 4.80137 11.5389 4.85187C12.9917 4.98199 14.0832 5.61753 14.8091 6.76254C13.5097 7.63619 12.867 8.85985 12.8798 10.4296C12.8915 11.6523 13.2912 12.6698 14.0768 13.4777C14.4328 13.8527 14.8304 14.1425 15.2727 14.3483C15.1768 14.657 15.0756 14.9527 14.9679 15.2366ZM11.6359 0.686343C11.6359 1.6447 11.3203 2.53952 10.6915 3.36775C9.93252 4.35236 9.01456 4.92131 8.0191 4.83153C8.00642 4.71656 7.99906 4.59555 7.99906 4.46839C7.99906 3.54837 8.35998 2.56377 9.00092 1.75872C9.3209 1.35111 9.72787 1.01218 10.2214 0.741819C10.7138 0.475487 11.1796 0.328201 11.6177 0.302979C11.6305 0.431096 11.6359 0.559222 11.6359 0.686331V0.686343Z"
        fill="white" />
</svg>
    