<svg width="16" height="20" viewBox="0 0 16 20" fill="none" xmlns="http://www.w3.org/2000/svg">
    <path fill-rule="evenodd" clip-rule="evenodd"
        d="M1.20644 0.593994C1.0176 0.823185 0.909058 1.17594 0.909058 1.63432V17.9388C0.909058 18.3972 1.0176 18.7499 1.2135 18.9711L1.26468 19.02L9.35488 9.8842V9.67893L1.25762 0.545166L1.20644 0.593994Z"
        fill="white" />
    <path fill-rule="evenodd" clip-rule="evenodd"
        d="M12.0463 12.9415L9.34778 9.89331V9.68006L12.0472 6.63184L12.1054 6.67269L15.2981 8.72145C16.2123 9.3034 16.2123 10.262 15.2981 10.8519L12.1054 12.9007C12.1045 12.9007 12.0463 12.9415 12.0463 12.9415Z"
        fill="white" />
    <path fill-rule="evenodd" clip-rule="evenodd"
        d="M12.1054 12.9004L9.34864 9.78638L1.20728 18.98C1.50466 19.3407 2.005 19.3815 2.56446 19.0288L12.1054 12.9004Z"
        fill="white" />
    <path fill-rule="evenodd" clip-rule="evenodd"
        d="M12.1054 6.67315L2.56446 0.552785C2.00588 0.192061 1.50466 0.240888 1.20728 0.601613L9.34776 9.78614L12.1054 6.67315Z"
        fill="white" />
    <path opacity="0.2" fill-rule="evenodd" clip-rule="evenodd"
        d="M12.0461 12.8352L2.57045 18.9147C2.04099 19.2585 1.56888 19.2346 1.26444 18.9227L1.21326 18.9805L1.26444 19.0293C1.56888 19.3402 2.04099 19.3652 2.57045 19.0214L12.1114 12.901L12.0461 12.8352Z"
        fill="#030C15" />
    <path opacity="0.12" fill-rule="evenodd" clip-rule="evenodd"
        d="M15.2975 10.745L12.0396 12.8347L12.0978 12.9004L15.2905 10.8516C15.7476 10.5567 15.9726 10.172 15.9726 9.78638C15.9435 10.1391 15.7114 10.475 15.2975 10.745Z"
        fill="#030C15" />
    <path opacity="0.25" fill-rule="evenodd" clip-rule="evenodd"
        d="M2.56363 0.659636L15.2973 8.82878C15.7111 9.09086 15.9432 9.43464 15.9794 9.7874C15.9794 9.40276 15.7544 9.01712 15.2973 8.72216L2.56363 0.553013C1.64943 -0.0369039 0.909058 0.454361 0.909058 1.63419V1.74082C0.909058 0.560984 1.64943 0.0776913 2.56363 0.659636Z"
        fill="white" />
</svg>
    