<?xml version="1.0" encoding="UTF-8"?>
<svg width="24" height="24" viewBox="0 0 24 24" fill="none" xmlns="http://www.w3.org/2000/svg">
  <path d="M20.4491 20.4495H16.8931V14.8805C16.8931 13.5525 16.8694 11.8435 15.0436 11.8435C13.1915 11.8435 12.9081 13.2895 12.9081 14.7838V20.4495H9.35207V8.99707H12.7658V10.5618H12.8131C13.1011 9.97471 13.5501 9.47947 14.1048 9.13132C14.6595 8.78317 15.2973 8.59641 15.9511 8.59095C19.5511 8.59095 20.4491 10.9655 20.4491 14.0378V20.4495ZM5.33957 7.43157C4.93416 7.43168 4.53723 7.31465 4.19269 7.09294C3.84815 6.87123 3.56973 6.55333 3.38769 6.17425C3.20564 5.79517 3.12817 5.37013 3.16351 4.94678C3.19884 4.52343 3.34565 4.11858 3.58959 3.77413C3.83354 3.42967 4.16551 3.15879 4.55084 2.98751C4.93617 2.81622 5.36115 2.7505 5.78324 2.79775C6.20533 2.845 6.60777 3.00301 6.94899 3.25761C7.29021 3.51221 7.55731 3.85339 7.72332 4.24645C7.88932 4.63951 7.94844 5.07001 7.89385 5.49277C7.83925 5.91553 7.67324 6.31379 7.41411 6.64394C7.15498 6.97408 6.81222 7.22376 6.42398 7.36517C6.03574 7.50658 5.61756 7.53441 5.21457 7.44595L5.33957 7.43157ZM7.11707 20.4495H3.55707V8.99707H7.11707V20.4495ZM22.2251 0.00156792H1.77107C1.30191 -0.00410071 0.85126 0.184614 0.519662 0.520997C0.188063 0.85738 -0.00057915 1.31076 1.32051e-05 1.78007V22.2196C-0.000894787 22.689 0.187541 23.1426 0.519085 23.4792C0.850628 23.8158 1.30133 24.0047 1.77057 23.9991H22.2251C22.6953 24.0057 23.1473 23.8174 23.4803 23.4809C23.8133 23.1444 24.003 22.6903 24.0031 22.2196V1.77857C24.0029 1.30789 23.8132 0.853912 23.4801 0.517459C23.147 0.181006 22.6951 -0.00736428 22.2251 0.000067895" fill="#7F8C8D"/>
</svg> 