<?xml version="1.0" encoding="UTF-8"?>
<svg width="24" height="24" viewBox="0 0 24 24" fill="none" xmlns="http://www.w3.org/2000/svg">
  <path d="M23.5 6.50701C23.5 4.49758 21.8787 2.87512 19.8695 2.87512C17.4188 2.77816 14.9219 2.73047 12.3801 2.73047C12.2301 2.73047 12.0801 2.73047 11.9301 2.73047C9.38831 2.73047 6.89144 2.77816 4.44081 2.87512C2.43144 2.87512 0.810187 4.5 0.810187 6.50943C0.713684 8.27574 0.666748 10.0423 0.666748 11.8086C0.666748 13.575 0.713684 15.3415 0.810187 17.1078C0.810187 19.1173 2.43144 20.7421 4.44081 20.7421C7.01894 20.8439 9.64894 20.8916 12.3051 20.8916C14.9613 20.8916 17.5911 20.8439 20.1695 20.7421C22.1787 20.7421 23.8 19.1173 23.8 17.1078C23.8965 15.3415 23.9434 13.575 23.9434 11.8086C23.9434 10.0423 23.8965 8.27574 23.5 6.50701ZM9.71894 16.1205V7.49666L16.2113 11.8086L9.71894 16.1205Z" fill="#7F8C8D"/>
</svg> 