<svg width="40" height="41" viewBox="0 0 40 41" fill="none" xmlns="http://www.w3.org/2000/svg">
    <g clip-path="url(#clip0_1443_3711)">
        <path
            d="M15.6873 20.0391H14.8771V2.25474C14.8771 2.24138 14.8754 2.22834 14.8745 2.21513C14.8746 1.95381 14.7992 1.75631 14.7226 1.62365C14.5383 1.30428 14.0271 0.802247 12.6736 1.02725C11.8614 1.1624 10.9046 1.53084 9.97957 2.0649C9.05449 2.59896 8.25699 3.24326 7.73379 3.87919C7.23817 4.48169 7.08254 4.96575 7.07426 5.33021C7.07246 5.34875 7.07152 5.36736 7.07145 5.38599V10.8275C7.07145 11.1511 7.33371 11.4134 7.65739 11.4134C7.98106 11.4134 8.24332 11.1511 8.24332 10.8275V6.57403C8.36387 6.59309 8.4959 6.60458 8.64332 6.60458C8.8302 6.60458 9.03988 6.58739 9.27481 6.54833C10.087 6.41317 11.0438 6.04466 11.9688 5.5106C12.6311 5.12818 13.2274 4.68919 13.7051 4.2374V20.0392H8.24332V13.1714C8.24332 12.8478 7.98106 12.5855 7.65739 12.5855C7.33371 12.5855 7.07145 12.8478 7.07145 13.1714V20.0392H6.2613C5.3145 20.0392 4.54419 20.8096 4.54419 21.7563V36.4264C4.54419 38.9323 6.58286 40.971 9.08879 40.971H12.86C15.3659 40.971 17.4046 38.9323 17.4046 36.4264V21.7563C17.4044 20.8094 16.6341 20.0391 15.6873 20.0391ZM11.3828 4.4956C9.6584 5.49114 8.44059 5.52138 8.2427 5.36474L8.24262 5.36411C8.24231 5.35536 8.24199 5.34661 8.24129 5.33794C8.2484 5.04755 8.89684 4.0431 10.5655 3.07982C12.29 2.0842 13.5076 2.05412 13.7057 2.21076C13.706 2.21248 13.7059 2.21459 13.706 2.21638C13.7052 2.22943 13.7056 2.24248 13.7056 2.25553C13.6742 2.56701 13.0193 3.55084 11.3828 4.4956ZM16.2324 36.4263C16.2324 38.2861 14.7196 39.799 12.8599 39.799H9.08863C7.22895 39.799 5.71591 38.2861 5.71591 36.4263V26.3181H16.2324V36.4263ZM16.2324 22.8585H9.53355C9.4566 22.8584 9.38041 22.8736 9.30931 22.903C9.23822 22.9325 9.17362 22.9756 9.11921 23.03C9.0648 23.0845 9.02164 23.1491 8.9922 23.2201C8.96276 23.2912 8.94761 23.3674 8.94762 23.4444C8.94762 23.7681 9.20988 24.0303 9.53355 24.0303H16.2325V25.146H5.71598V24.0303H7.19004C7.51371 24.0303 7.77598 23.7681 7.77598 23.4444C7.77598 23.1207 7.51371 22.8585 7.19004 22.8585H5.71598V21.7562C5.71615 21.6116 5.77365 21.473 5.87586 21.3708C5.97808 21.2686 6.11666 21.2111 6.26122 21.211H7.65129C7.65332 21.211 7.65528 21.2113 7.65731 21.2113H14.291C14.2931 21.2113 14.295 21.211 14.2971 21.211H15.6872C15.8318 21.2111 15.9704 21.2686 16.0726 21.3708C16.1748 21.473 16.2323 21.6116 16.2324 21.7562V22.8585ZM34.9807 34.1257L31.0515 26.6274V4.96997C31.0515 3.21388 29.6228 1.78514 27.8666 1.78514C26.1106 1.78514 24.6819 3.2138 24.6819 4.96997V8.88739C24.6819 9.21106 24.9441 9.47332 25.2678 9.47332C25.5915 9.47332 25.8538 9.21106 25.8538 8.88739V4.96997C25.8538 3.86005 26.7567 2.95709 27.8666 2.95709C28.9765 2.95709 29.8795 3.86005 29.8795 4.96997V23.5589H28.4186C28.0949 23.5589 27.8327 23.8212 27.8327 24.1449C27.8327 24.4685 28.0949 24.7308 28.4186 24.7308H29.8795V26.1856H25.8538V24.7308H26.0756C26.3992 24.7308 26.6615 24.4685 26.6615 24.1449C26.6615 23.8212 26.3992 23.5589 26.0756 23.5589H25.8538V11.2312C25.8538 10.9075 25.5916 10.6453 25.2679 10.6453C25.1909 10.6453 25.1148 10.6604 25.0437 10.6899C24.9726 10.7193 24.908 10.7625 24.8536 10.8169C24.7991 10.8713 24.756 10.9359 24.7265 11.007C24.6971 11.0781 24.6819 11.1543 24.682 11.2312V26.6274L20.7527 34.1258C20.0778 35.4136 20.1242 36.9253 20.8768 38.1694C21.6295 39.4134 22.9468 40.1562 24.4009 40.1562H31.3326C32.7866 40.1562 34.104 39.4134 34.8566 38.1694C35.6091 36.9252 35.6555 35.4135 34.9807 34.1257ZM33.8537 37.5626C33.3153 38.4528 32.3728 38.9841 31.3324 38.9841H30.7903C31.3346 37.8644 31.527 36.0859 31.2312 34.4955C31.2027 34.3427 31.1148 34.2075 30.9867 34.1196C30.8586 34.0317 30.7008 33.9982 30.548 34.0265C30.3953 34.0549 30.26 34.1429 30.1721 34.271C30.0842 34.3991 30.0507 34.5569 30.0791 34.7097C30.3919 36.3917 30.0417 38.1959 29.5183 38.8257C29.4213 38.9423 29.3452 38.9837 29.3094 38.9837H26.4234C26.3877 38.9837 26.3115 38.9423 26.2145 38.8256C25.6912 38.1956 25.3413 36.3915 25.6548 34.71C25.6832 34.5572 25.6499 34.3994 25.562 34.2712C25.4741 34.1431 25.3389 34.0551 25.1861 34.0266C24.8686 33.9669 24.5621 34.1772 24.5027 34.4953C24.2063 36.0857 24.3983 37.8644 24.9427 38.9842H24.4009C23.3606 38.9842 22.418 38.4528 21.8794 37.5627C21.341 36.6726 21.3078 35.5912 21.7906 34.6698L25.6223 27.3577H30.1109L33.9425 34.6698C34.4254 35.5911 34.3923 36.6725 33.8537 37.5626Z"
            fill="#E26A8D" />
    </g>
    <defs>
        <clipPath id="clip0_1443_3711">
            <rect width="40" height="40" fill="white" transform="translate(0 0.971008)" />
        </clipPath>
    </defs>
</svg>
    