<svg width="40" height="41" viewBox="0 0 40 41" fill="none" xmlns="http://www.w3.org/2000/svg">
<g clip-path="url(#clip0_31_360)">
<path d="M9.82031 10.8142C9.38906 10.8142 9.03906 11.1642 9.03906 11.5955C9.03906 12.0267 9.38906 12.3767 9.82031 12.3767C10.2516 12.3767 10.6016 12.0267 10.6016 11.5955C10.6016 11.1642 10.2516 10.8142 9.82031 10.8142ZM16.8512 25.4228H14.5076V23.0792C14.5076 22.6478 14.1577 22.298 13.7263 22.298C13.2949 22.298 12.9452 22.6478 12.9452 23.0792V25.4228H10.6016C10.1702 25.4228 9.82031 25.7727 9.82031 26.204C9.82031 26.6353 10.1702 26.9853 10.6016 26.9853H12.9452V29.3288C12.9452 29.7603 13.295 30.1101 13.7263 30.1101C14.1577 30.1101 14.5076 29.7603 14.5076 29.3288V26.9853H16.8512C17.2826 26.9853 17.6324 26.6354 17.6324 26.204C17.6324 25.7726 17.2827 25.4228 16.8512 25.4228Z" fill="#3498DB"/>
<path d="M37.9357 26.1259C36.2087 23.1349 32.3903 22.1112 29.3987 23.8385L26.2254 25.6706V18.8865C26.2254 18.0478 25.948 17.2156 25.4442 16.5429L21.5382 11.335V9.11735C22.4474 8.79485 23.1006 7.92657 23.1006 6.90806V3.31454C23.1005 2.02228 22.0491 0.970947 20.7569 0.970947H6.69508C5.40281 0.970947 4.35141 2.02228 4.35141 3.31454V6.90814C4.35141 7.9265 5.00461 8.79493 5.91383 9.11743V11.3351L2.0075 16.5433C1.50391 17.2156 1.22656 18.0478 1.22656 18.8865V34.0162C1.22656 36.17 2.97883 37.9222 5.13258 37.9222H17.6874C19.4391 40.8584 23.2161 41.841 26.1768 40.1315L35.6484 34.663C38.6136 32.9506 39.6713 29.1334 37.9357 26.1259ZM5.91383 3.31454C5.91383 2.88376 6.2643 2.53329 6.695 2.53329H20.7568C21.1876 2.53329 21.538 2.88376 21.538 3.31454V6.90814C21.538 7.33892 21.1876 7.68931 20.7568 7.68931H6.69508C6.2643 7.68931 5.91391 7.33884 5.91391 6.90814L5.91383 3.31454ZM3.25781 17.4802L7.32 12.0642C7.42143 11.9289 7.47626 11.7644 7.47625 11.5954V9.25181H19.9756V10.8142H12.9448C12.5134 10.8142 12.1635 11.1641 12.1635 11.5955C12.1635 12.0269 12.5134 12.3767 12.9448 12.3767H20.3662L24.1938 17.48C24.444 17.814 24.5994 18.2136 24.6463 18.6264H2.80562C2.8525 18.2135 3.00789 17.8139 3.25781 17.4802ZM5.13266 36.3598C3.84039 36.3598 2.78906 35.3085 2.78906 34.0162V33.2272H16.9824C16.7347 34.2401 16.7363 35.322 17.02 36.3599H5.13266V36.3598ZM17.5952 31.6725H2.78898V20.1887H24.6629V26.5725L19.927 29.307C18.9396 29.8774 18.1415 30.6894 17.5952 31.6725ZM25.3957 38.7784C23.1537 40.073 20.2889 39.3074 18.9934 37.0638C17.6918 34.7987 18.4806 31.9468 20.7084 30.66L24.9488 28.2117L29.6361 36.3301L25.3957 38.7784ZM34.8671 33.3099L30.9892 35.5489L26.3019 27.4304L30.1798 25.1917C32.4233 23.8965 35.2871 24.6634 36.5826 26.907C37.8837 29.1619 37.0925 32.0249 34.8671 33.3099Z" fill="#3498DB"/>
</g>
<defs>
<clipPath id="clip0_31_360">
<rect width="40" height="40" fill="white" transform="translate(0 0.970947)"/>
</clipPath>
</defs>
</svg>
