<svg width="40" height="41" viewBox="0 0 40 41" fill="none" xmlns="http://www.w3.org/2000/svg">
    <g clip-path="url(#clip0_1443_3734)">
        <path
            d="M23.0833 13.3044C25.75 13.3044 28 11.1377 28.0833 8.47102H28.3333C30.1666 8.47102 31.6666 6.97102 31.6666 5.13769C31.6666 3.30435 30.1666 1.80435 28.3333 1.80435C26.9999 1.80435 25.8333 2.63769 25.3333 3.80435C24.6666 3.47102 23.9166 3.30435 23.0833 3.30435C20.3333 3.30435 18.0833 5.55435 18.0833 8.30435C18.0833 11.0544 20.3333 13.3044 23.0833 13.3044ZM28.3333 3.47102C29.2499 3.47102 29.9999 4.22102 29.9999 5.13769C29.9999 6.22102 28.9166 7.05435 27.8333 6.72102C27.5833 5.97102 27.1666 5.38769 26.6666 4.80435C26.8333 4.05435 27.4999 3.47102 28.3333 3.47102ZM23.0833 4.97102C24.9166 4.97102 26.4166 6.47102 26.4166 8.30435C26.4166 10.1377 24.9166 11.6377 23.0833 11.6377C21.2499 11.6377 19.7499 10.1377 19.7499 8.30435C19.7499 6.47102 21.2499 4.97102 23.0833 4.97102ZM19.4999 39.971C19.6666 40.0544 19.8333 40.1377 19.9999 40.1377C20.2499 40.1377 20.4166 40.0544 20.5833 39.8877C21.4166 39.3044 25.0833 36.8877 28.3333 33.5544C28.6666 33.221 28.6666 32.721 28.3333 32.3877C27.9999 32.0544 27.4999 32.0544 27.1666 32.3877C24.3333 35.221 21.1666 37.471 19.9999 38.3044C17.3333 36.471 4.16662 27.1377 8.24995 19.8044C9.16662 18.0544 10.4166 17.1377 11.9166 16.8877C15.0833 16.3877 18.6666 19.221 19.3333 19.8044V19.8877C19.4166 19.971 19.5833 20.0544 19.6666 20.1377H20.1666C20.3333 20.0544 20.4166 20.0544 20.4999 19.8877V19.8044C21.1666 19.221 24.7499 16.3044 27.9166 16.8877C29.4166 17.1377 30.6666 18.1377 31.5833 19.8044C33.3333 22.6377 32.4999 26.0544 29.3333 30.0544C29.0833 30.3877 29.0833 30.971 29.5 31.221C29.6666 31.3044 29.8333 31.3877 29.9999 31.3877C30.2499 31.3877 30.4999 31.3044 30.6666 31.0544C34.3333 26.5544 35.1666 22.471 33.25 18.971C32.0833 16.8044 30.4166 15.5544 28.4166 15.221C24.9166 14.6377 21.4166 17.1377 20.0833 18.221C18.7499 17.1377 15.1666 14.6377 11.75 15.221C9.74995 15.5544 8.08328 16.8044 6.91662 18.971C1.74995 28.221 17.9166 38.971 19.4999 39.971Z"
            fill="#F4A261" />
        <path
            d="M23.1667 22.5544C21.9167 22.3877 20.6667 23.0544 20 23.5544C19.3333 23.0544 18.0833 22.3877 16.8333 22.5544C16.25 22.6377 15.3333 23.0544 14.6667 24.221C12.5833 27.971 18.8333 32.0544 19.5 32.5544C19.6667 32.6377 19.8333 32.721 20 32.721C20.1667 32.721 20.4167 32.6377 20.5 32.5544C21.4167 31.971 27.25 27.971 25.25 24.3044C24.6667 22.971 23.8333 22.6377 23.1667 22.5544ZM20 30.8044C18.3333 29.6377 15.0833 26.8877 16.1667 24.971C16.5833 24.221 17 24.221 17.0833 24.1377H17.25C18.0833 24.1377 19.0833 24.8877 19.4167 25.1377C19.75 25.471 20.25 25.471 20.5833 25.1377L20.6667 25.0544C21.0833 24.721 22.0833 24.0544 22.8333 24.1377C23 24.1377 23.4167 24.221 23.75 24.971C24.9167 26.8877 21.75 29.6377 20 30.8044ZM29.4167 21.3044C29.4167 19.8877 28.3333 18.8044 26.9167 18.8044C25.5 18.8044 24.4167 19.8877 24.4167 21.3044C24.4167 22.721 25.5 23.8044 26.9167 23.8044C28.3333 23.8044 29.4167 22.6377 29.4167 21.3044ZM26.0833 21.3044C26.0833 20.8044 26.4167 20.471 26.9167 20.471C27.4167 20.471 27.75 20.8044 27.75 21.3044C27.75 21.8044 27.4167 22.1377 26.9167 22.1377C26.4167 22.1377 26.0833 21.721 26.0833 21.3044Z"
            fill="#F4A261" />
    </g>
    <defs>
        <clipPath id="clip0_1443_3734">
            <rect width="40" height="40" fill="white" transform="translate(0 0.971008)" />
        </clipPath>
    </defs>
</svg>