<svg width="40" height="41" viewBox="0 0 40 41" fill="none" xmlns="http://www.w3.org/2000/svg">
    <g clip-path="url(#clip0_1443_3726)">
        <path
            d="M36.4293 11.3482C35.1114 11.3482 34.0239 12.3791 33.9537 13.6952L33.624 19.8704C33.0167 19.7513 32.3664 19.8974 31.8525 20.3182L31.61 20.5169C31.6982 20.3546 31.783 20.1905 31.8643 20.0246C31.9308 19.8851 31.9395 19.7249 31.8885 19.579C31.8375 19.433 31.7309 19.3131 31.592 19.2454C31.453 19.1777 31.2929 19.1676 31.1465 19.2173C31.0001 19.267 30.8793 19.3725 30.8104 19.5109C29.8321 21.5175 28.3184 23.2142 26.4326 24.4173C24.4962 25.6527 22.2527 26.3058 19.9446 26.3058C17.6364 26.3058 15.3928 25.6527 13.4565 24.4173C11.5708 23.2141 10.057 21.5175 9.07877 19.5109C9.01064 19.3711 8.8898 19.2642 8.74281 19.2135C8.59582 19.1628 8.43472 19.1726 8.29495 19.2407C8.22574 19.2745 8.16385 19.3215 8.11282 19.3792C8.06179 19.4368 8.02262 19.5039 7.99754 19.5767C7.97246 19.6495 7.96196 19.7266 7.96665 19.8034C7.97134 19.8803 7.99113 19.9554 8.02488 20.0246C8.07953 20.1358 8.13574 20.2463 8.19349 20.3559L8.14745 20.3182C7.63371 19.8973 6.98333 19.7513 6.37603 19.8703L6.04631 13.6951C5.97603 12.379 4.88852 11.3481 3.57065 11.3481C2.20361 11.3481 1.0914 12.4603 1.0914 13.8273V23.8804C1.0922 24.7341 1.38783 25.5613 1.92829 26.2221L3.25906 27.8461C3.31401 27.9134 3.38325 27.9675 3.46174 28.0046C3.54023 28.0418 3.62601 28.0609 3.71284 28.0608C3.82384 28.0607 3.93254 28.0292 4.02631 27.9698C4.12007 27.9103 4.19505 27.8255 4.24251 27.7252C4.28998 27.6249 4.30799 27.5131 4.29444 27.403C4.28089 27.2928 4.23635 27.1887 4.166 27.1029L2.83522 25.479C2.46632 25.0279 2.26452 24.4632 2.26396 23.8805V13.8274C2.26396 13.1069 2.85015 12.5207 3.57065 12.5207C4.26527 12.5207 4.83842 13.0641 4.87539 13.7577L5.23529 20.4983C4.43506 21.3374 4.44647 22.6707 5.27078 23.4951L8.94353 27.1678C9.05364 27.277 9.20251 27.3381 9.35755 27.3378C9.5126 27.3374 9.6612 27.2757 9.77083 27.1661C9.88047 27.0564 9.94222 26.9078 9.94257 26.7528C9.94292 26.5978 9.88183 26.4489 9.77269 26.3388L6.09993 22.666C5.72057 22.2866 5.72057 21.6694 6.09993 21.2901C6.27026 21.1189 6.49836 21.0173 6.73962 21.0053C6.98087 20.9934 7.21791 21.0718 7.40436 21.2254L15.5122 27.867C15.6934 28.0149 15.8394 28.2014 15.9395 28.4128C16.0396 28.6243 16.0913 28.8553 16.0909 29.0893V33.8927H7.5951V31.4971C7.59506 31.3617 7.54813 31.2303 7.46228 31.1255L5.74996 29.036C5.6514 28.9157 5.5091 28.8395 5.35437 28.8241C5.19963 28.8088 5.04514 28.8555 4.92487 28.9541C4.80461 29.0527 4.72842 29.195 4.71307 29.3497C4.69772 29.5044 4.74447 29.6589 4.84303 29.7792L6.42254 31.7067V34.0746C5.76771 34.3823 5.31307 35.0478 5.31307 35.8179V40.3848C5.31307 40.7086 5.57549 40.9711 5.89935 40.9711C6.22321 40.9711 6.48562 40.7086 6.48562 40.3848V38.626H17.2004V40.3848C17.2004 40.7086 17.4628 40.9711 17.7866 40.9711C18.1105 40.9711 18.3729 40.7086 18.3729 40.3848V35.8179C18.3729 35.0478 17.9183 34.3822 17.2634 34.0746V29.0893C17.2641 28.6818 17.174 28.2793 16.9996 27.9109C16.8252 27.5426 16.5709 27.2178 16.2553 26.9601L16.2494 26.9553C17.4504 27.3029 18.6944 27.479 19.9446 27.4786C21.2675 27.4786 22.5706 27.2811 23.817 26.901L23.7448 26.9601C23.4291 27.2179 23.1748 27.5427 23.0004 27.911C22.826 28.2793 22.7359 28.6819 22.7366 29.0894V34.0747C22.0818 34.3824 21.6271 35.048 21.6271 35.8181V40.385C21.6271 40.7087 21.8896 40.9712 22.2134 40.9712C22.5373 40.9712 22.7997 40.7087 22.7997 40.385V38.6261H33.5144V40.385C33.5144 40.7087 33.7768 40.9712 34.1007 40.9712C34.4246 40.9712 34.687 40.7087 34.687 40.385V35.8181C34.687 35.048 34.2323 34.3824 33.5775 34.0747V31.7068L38.0718 26.2223C38.6122 25.5615 38.9079 24.7343 38.9086 23.8806V13.8274C38.9086 12.4604 37.7964 11.3482 36.4293 11.3482ZM6.48562 37.4533V35.8179C6.48562 35.4028 6.82324 35.0652 7.23833 35.0652H16.4478C16.8628 35.0652 17.2004 35.4028 17.2004 35.8179V37.4533H6.48562ZM37.736 23.8804C37.7355 24.4631 37.5337 25.0278 37.1647 25.4789L32.5377 31.1254C32.4518 31.2302 32.4049 31.3616 32.4049 31.4971V33.8926H31.2242C30.9003 33.8926 30.6379 34.1551 30.6379 34.4789C30.6379 34.8027 30.9003 35.0652 31.2242 35.0652H32.7617C33.1768 35.0652 33.5144 35.4028 33.5144 35.8179V37.4533H22.7996V35.8179C22.7996 35.4028 23.1372 35.0652 23.5523 35.0652H28.7256C29.0495 35.0652 29.3119 34.8027 29.3119 34.4789C29.3119 34.1551 29.0495 33.8926 28.7256 33.8926H23.9092V29.0892C23.9087 28.8553 23.9605 28.6242 24.0606 28.4127C24.1607 28.2013 24.3066 28.0148 24.4879 27.8669L32.5957 21.2253C32.7821 21.0717 33.0192 20.9932 33.2604 21.0052C33.5017 21.0172 33.7298 21.1187 33.9001 21.2901C34.2795 21.6694 34.2795 22.2866 33.9001 22.6659L30.2274 26.3387C30.1182 26.4488 30.0571 26.5977 30.0575 26.7527C30.0578 26.9078 30.1196 27.0564 30.2292 27.166C30.3389 27.2756 30.4875 27.3374 30.6425 27.3377C30.7975 27.338 30.9464 27.2769 31.0565 27.1678L34.7293 23.495C35.5535 22.6707 35.5649 21.3374 34.7648 20.4983L35.1246 13.7576C35.1616 13.064 35.7348 12.5207 36.4293 12.5207C37.1498 12.5207 37.736 13.1068 37.736 13.8273V23.8804Z"
            fill="#4D4D4D" />
        <path
            d="M24.0292 18.7084C23.9257 18.8235 23.8719 18.9749 23.8796 19.1295C23.8873 19.2842 23.9558 19.4295 24.0702 19.5338C24.1846 19.6381 24.3357 19.6929 24.4903 19.6862C24.645 19.6796 24.7908 19.612 24.8958 19.4982L27.9084 16.1928C29.7885 14.13 29.7152 10.9682 27.7417 8.99465L27.7263 8.97925C25.6936 6.94659 22.3863 6.94667 20.3535 8.97925L19.941 9.39184L19.5126 8.96518C17.48 6.94081 14.176 6.94409 12.1473 8.97269C11.1913 9.92347 10.6421 11.2085 10.6156 12.5566C10.5892 13.9046 11.0875 15.2102 12.0055 16.1978L18.6868 23.4259C18.8547 23.6071 19.058 23.7516 19.2843 23.8506C19.5105 23.9495 19.7547 24.0007 20.0017 24.0009H20.0078C20.2558 23.9998 20.5009 23.9473 20.7275 23.8467C20.9542 23.7461 21.1576 23.5997 21.3249 23.4166L23.1895 21.3707C23.2916 21.2553 23.3441 21.1045 23.3359 20.9507C23.3276 20.7969 23.2592 20.6525 23.1454 20.5488C23.0316 20.445 22.8815 20.3902 22.7276 20.3962C22.5737 20.4022 22.4284 20.4685 22.3229 20.5807L20.4583 22.6267C20.4009 22.6903 20.3307 22.7411 20.2525 22.7758C20.1742 22.8106 20.0894 22.8285 20.0038 22.8284C19.9181 22.8292 19.8332 22.812 19.7547 22.7778C19.6762 22.7436 19.6057 22.6932 19.548 22.6299L12.8666 15.4019C12.1551 14.6364 11.7688 13.6245 11.7893 12.5796C11.8099 11.5347 12.2356 10.5387 12.9766 9.80176C14.5487 8.22944 17.1096 8.22694 18.6852 9.79598L19.5282 10.6355C19.6382 10.7451 19.7872 10.8066 19.9425 10.8064C20.0978 10.8062 20.2467 10.7445 20.3565 10.6347L21.1827 9.80841C22.7581 8.23304 25.3216 8.23296 26.8972 9.80841L26.9126 9.82381C28.4423 11.3534 28.4991 13.8041 27.0419 15.403L24.0292 18.7084Z"
            fill="#4D4D4D" />
        <path
            d="M9.55575 6.95245C9.67882 7.04749 9.8346 7.08976 9.98884 7.06996C10.1431 7.05015 10.2831 6.9699 10.3782 6.84684C12.6869 3.85784 16.1737 2.14356 19.9446 2.14356C23.7155 2.14356 27.2022 3.85784 29.5109 6.84684C29.5657 6.91789 29.636 6.9754 29.7166 7.01493C29.7971 7.05445 29.8856 7.07493 29.9753 7.07478C30.0849 7.07471 30.1922 7.04394 30.2852 6.98596C30.3781 6.92798 30.453 6.84512 30.5012 6.74677C30.5495 6.64842 30.5692 6.53851 30.5582 6.42952C30.5472 6.32052 30.5059 6.21679 30.4389 6.1301C27.9063 2.8514 24.0814 0.971008 19.9446 0.971008C15.8077 0.971008 11.9826 2.8514 9.45022 6.1301C9.35517 6.25314 9.31289 6.40891 9.33268 6.56313C9.35247 6.71735 9.43271 6.85739 9.55575 6.95245ZM7.51535 17.2671C7.60199 17.2672 7.68756 17.2481 7.76593 17.2111C7.84429 17.1742 7.9135 17.1203 7.96856 17.0534C8.02363 16.9866 8.06319 16.9083 8.0844 16.8243C8.10561 16.7403 8.10794 16.6526 8.09123 16.5676C7.93979 15.7958 7.8635 15.0112 7.86344 14.2246C7.86344 12.6934 8.14587 11.2017 8.70284 9.79074C8.73218 9.71892 8.74697 9.642 8.74637 9.56443C8.74576 9.48685 8.72977 9.41017 8.69931 9.33883C8.66886 9.26748 8.62454 9.20289 8.56894 9.14879C8.51334 9.09469 8.44756 9.05217 8.3754 9.02368C8.30325 8.99519 8.22616 8.98131 8.1486 8.98283C8.07104 8.98436 7.99455 9.00126 7.92357 9.03255C7.85259 9.06385 7.78852 9.10893 7.73509 9.16516C7.68165 9.2214 7.63991 9.28769 7.61228 9.36017C7.00091 10.9088 6.69089 12.5454 6.69089 14.2246C6.69098 15.087 6.77462 15.9474 6.94064 16.7937C6.96683 16.9269 7.03843 17.047 7.14324 17.1333C7.24805 17.2196 7.37956 17.2669 7.51535 17.2671ZM32.0256 14.2247C32.0256 15.0104 31.949 15.7987 31.7978 16.5677C31.7701 16.7193 31.8033 16.8758 31.8901 17.0031C31.9769 17.1305 32.1103 17.2186 32.2615 17.2483C32.4128 17.278 32.5696 17.247 32.6982 17.162C32.8267 17.0769 32.9166 16.9447 32.9484 16.7939C33.1144 15.9476 33.198 15.0872 33.1981 14.2248C33.1981 12.5456 32.8881 10.909 32.2767 9.36033C32.1578 9.05914 31.8172 8.91124 31.5162 9.03029C31.3716 9.08739 31.2556 9.1996 31.1937 9.34224C31.1318 9.48488 31.1291 9.64626 31.1862 9.79089C31.7432 11.2017 32.0256 12.6935 32.0256 14.2247Z"
            fill="#4D4D4D" />
    </g>
    <defs>
        <clipPath id="clip0_1443_3726">
            <rect width="40" height="40" fill="white" transform="translate(0 0.971008)" />
        </clipPath>
    </defs>
</svg>
    