<svg width="34" height="38" viewBox="0 0 34 38" fill="none" xmlns="http://www.w3.org/2000/svg">
<path d="M5.54008 7.94306L2.14156 10.2088C1.71311 10.4937 1.36183 10.8803 1.11903 11.334C0.876226 11.7876 0.74945 12.2944 0.750002 12.8089V31.4709C0.750002 33.1941 2.15188 34.5959 3.875 34.5959H14.5C14.5 36.3191 15.9019 37.7209 17.625 37.7209H23.875C24.8962 37.7209 25.8044 37.2285 26.375 36.4688C26.9456 37.2285 27.8538 37.7209 28.875 37.7209H30.125C31.8481 37.7209 33.25 36.3191 33.25 34.5959V28.3459C33.25 26.6228 31.8481 25.2209 30.125 25.2209H28.875C27.1519 25.2209 25.75 26.6228 25.75 28.3459V30.8477C25.2099 30.4403 24.5515 30.2202 23.875 30.2209H23.25V12.8089C23.2506 12.2944 23.1238 11.7876 22.881 11.334C22.6382 10.8803 22.2869 10.4937 21.8584 10.2088L18.4599 7.94306C18.2028 7.77208 17.9921 7.54016 17.8464 7.26795C17.7007 6.99574 17.6247 6.69172 17.625 6.38298V5.22095H18.25C18.4158 5.22095 18.5747 5.1551 18.6919 5.03789C18.8092 4.92068 18.875 4.76171 18.875 4.59595V2.09595C18.875 1.06212 18.0338 0.220947 17 0.220947H7C5.96617 0.220947 5.125 1.06212 5.125 2.09595V4.59595C5.125 4.76171 5.19085 4.92068 5.30806 5.03789C5.42527 5.1551 5.58424 5.22095 5.75 5.22095H6.375V6.38298C6.37535 6.69172 6.29929 6.99574 6.15361 7.26795C6.00793 7.54016 5.79715 7.77208 5.54008 7.94306ZM22 27.7209H2V15.2209H22V27.7209ZM15.75 34.5959V33.3459C15.75 32.312 16.5911 31.4709 17.625 31.4709H20.125V36.4709H17.625C16.5911 36.4709 15.75 35.6299 15.75 34.5959ZM30.125 36.4709H28.875C27.8412 36.4709 27 35.6299 27 34.5959V32.0959H32V34.5959C32 35.6299 31.1588 36.4709 30.125 36.4709ZM28.875 26.4709H30.125C31.1588 26.4709 32 27.312 32 28.3459V30.8459H27V28.3459C27 27.312 27.8412 26.4709 28.875 26.4709ZM25.75 33.3459V34.5959C25.75 35.6299 24.9088 36.4709 23.875 36.4709H21.375V31.4709H23.875C24.9088 31.4709 25.75 32.312 25.75 33.3459ZM17.625 30.2209C15.9019 30.2209 14.5 31.6228 14.5 33.3459H3.875C2.8411 33.3459 2 32.5049 2 31.4709V28.9709H22V30.2209H17.625ZM8.875 3.97095V1.47095H11.375V3.97095H8.875ZM12.625 1.47095H15.125V3.97095H12.625V1.47095ZM17.625 2.09595V3.97095H16.375V1.47095H17C17.3446 1.47095 17.625 1.75134 17.625 2.09595ZM6.375 2.09595C6.375 1.75134 6.65539 1.47095 7 1.47095H7.625V3.97095H6.375V2.09595ZM16.375 5.22095V6.38298C16.3744 6.89754 16.5012 7.40425 16.744 7.85793C16.9868 8.31161 17.3381 8.69816 17.7666 8.98314L21.165 11.2488C21.4221 11.4198 21.6329 11.6517 21.7786 11.9239C21.9242 12.1961 22.0003 12.5002 22 12.8089V13.9709H2V12.8089C1.99966 12.5002 2.07572 12.1962 2.2214 11.9239C2.36707 11.6517 2.57785 11.4198 2.83492 11.2488L6.23344 8.98314C6.66189 8.69816 7.01317 8.31161 7.25598 7.85793C7.49878 7.40425 7.62555 6.89754 7.625 6.38298V5.22095H16.375ZM7.43274 22.7848C8.2368 23.6143 9.42555 24.032 10.9759 24.032C11.1109 24.032 11.2496 24.0279 11.3901 24.0215L11.375 25.8408C11.3743 25.9229 11.3898 26.0043 11.4206 26.0804C11.4514 26.1565 11.4968 26.2257 11.5544 26.2842C11.612 26.3428 11.6805 26.3894 11.7561 26.4214C11.8316 26.4534 11.9128 26.4703 11.9948 26.4709H12.0001C12.1649 26.4709 12.3231 26.4058 12.4401 26.2897C12.5571 26.1736 12.6236 26.0159 12.6249 25.8511L12.641 23.9096C15.0165 23.615 16.6363 22.7637 17.4592 21.3742C18.6718 19.3269 17.6365 16.9426 17.5918 16.8421C17.5332 16.7103 17.4308 16.6028 17.302 16.5379C17.1732 16.4729 17.0259 16.4545 16.8851 16.4858C13.71 17.1913 12.383 19.0381 11.8288 20.4631C11.8038 20.5274 11.7806 20.5912 11.7582 20.6547C11.5833 20.4105 11.3815 20.1868 11.1566 19.9877C10.1434 19.0934 8.7257 18.7529 6.94313 18.9756C6.80708 18.9926 6.6804 19.0539 6.58261 19.15C6.48482 19.2461 6.42134 19.3717 6.40195 19.5074C6.3907 19.5863 6.14117 21.4523 7.43274 22.7848ZM16.6149 17.8446C16.7971 18.509 16.9891 19.722 16.3795 20.7443C15.7763 21.7561 14.5155 22.3964 12.627 22.6519C12.6784 21.4488 13.1984 18.8413 16.6149 17.8446ZM10.3211 20.9176C10.9606 21.4775 11.2197 22.2515 11.3245 22.7745C9.95547 22.8363 8.95258 22.5506 8.33789 21.9226C7.79789 21.3709 7.65906 20.642 7.63148 20.1684C8.78117 20.1089 9.68414 20.3599 10.3211 20.9176Z" fill="#9ACD32"/>
</svg>
